<svg width="24" height="24" viewBox="0 0 24 24" fill="none" xmlns="http://www.w3.org/2000/svg">
<mask id="mask0_1808_12678" style="mask-type:alpha" maskUnits="userSpaceOnUse" x="0" y="0" width="24" height="24">
<rect width="24" height="24" fill="#D9D9D9"/>
</mask>
<g mask="url(#mask0_1808_12678)">
<path d="M11.9999 14.2635L13.775 15.3461C13.939 15.45 14.1047 15.4442 14.272 15.3288C14.4393 15.2135 14.5012 15.057 14.4576 14.8596L13.9865 12.8289L15.5711 11.4596C15.7249 11.3225 15.7701 11.1609 15.7066 10.975C15.6432 10.7891 15.5076 10.6878 15.2999 10.6712L13.2288 10.4962L12.4115 8.59041C12.3346 8.40965 12.1974 8.31926 11.9999 8.31926C11.8025 8.31926 11.6653 8.40965 11.5884 8.59041L10.7711 10.4962L8.69998 10.6712C8.49228 10.6878 8.3567 10.7891 8.29325 10.975C8.22978 11.1609 8.27497 11.3225 8.42882 11.4596L10.0134 12.8289L9.54227 14.8596C9.49869 15.057 9.56055 15.2135 9.72785 15.3288C9.89515 15.4442 10.0608 15.45 10.2249 15.3461L11.9999 14.2635ZM8.8615 19.5H6.30768C5.80896 19.5 5.383 19.3234 5.0298 18.9702C4.67658 18.617 4.49998 18.191 4.49998 17.6923V15.1385L2.6423 13.2654C2.4718 13.0846 2.34295 12.8846 2.25575 12.6654C2.16858 12.4462 2.125 12.2244 2.125 12C2.125 11.7757 2.16858 11.5539 2.25575 11.3346C2.34293 11.1154 2.47178 10.9154 2.6423 10.7346L4.49998 8.86156V6.30774C4.49998 5.80902 4.67658 5.38306 5.0298 5.02986C5.383 4.67664 5.80896 4.50004 6.30768 4.50004H8.8615L10.7346 2.64236C10.9153 2.47184 11.1153 2.343 11.3346 2.25583C11.5538 2.16865 11.7756 2.12506 11.9999 2.12506C12.2243 2.12506 12.4461 2.16865 12.6653 2.25583C12.8846 2.343 13.0846 2.47184 13.2653 2.64236L15.1384 4.50004H17.6922C18.1909 4.50004 18.6169 4.67664 18.9701 5.02986C19.3233 5.38306 19.4999 5.80902 19.4999 6.30774V8.86156L21.3576 10.7346C21.5281 10.9154 21.657 11.1154 21.7441 11.3346C21.8313 11.5539 21.8749 11.7757 21.8749 12C21.8749 12.2244 21.8313 12.4462 21.7441 12.6654C21.657 12.8846 21.5281 13.0846 21.3576 13.2654L19.4999 15.1385V17.6923C19.4999 18.191 19.3233 18.617 18.9701 18.9702C18.6169 19.3234 18.1909 19.5 17.6922 19.5H15.1384L13.2653 21.3577C13.0846 21.5282 12.8846 21.657 12.6653 21.7442C12.4461 21.8314 12.2243 21.875 11.9999 21.875C11.7756 21.875 11.5538 21.8314 11.3346 21.7442C11.1153 21.657 10.9153 21.5282 10.7346 21.3577L8.8615 19.5ZM9.49995 18L11.7788 20.2788C11.8365 20.3365 11.9102 20.3654 11.9999 20.3654C12.0897 20.3654 12.1634 20.3365 12.2211 20.2788L14.4999 18H17.6922C17.782 18 17.8557 17.9712 17.9134 17.9135C17.9711 17.8558 17.9999 17.782 17.9999 17.6923V14.5L20.2788 12.2212C20.3365 12.1635 20.3653 12.0898 20.3653 12C20.3653 11.9103 20.3365 11.8365 20.2788 11.7788L17.9999 9.50001V6.30774C17.9999 6.21799 17.9711 6.14426 17.9134 6.08656C17.8557 6.02886 17.782 6.00001 17.6922 6.00001H14.4999L12.2211 3.72119C12.1634 3.66349 12.0897 3.63464 11.9999 3.63464C11.9102 3.63464 11.8365 3.66349 11.7788 3.72119L9.49995 6.00001H6.30768C6.21793 6.00001 6.1442 6.02886 6.0865 6.08656C6.0288 6.14426 5.99995 6.21799 5.99995 6.30774V9.50001L3.72113 11.7788C3.66342 11.8365 3.63457 11.9103 3.63457 12C3.63457 12.0898 3.66342 12.1635 3.72113 12.2212L5.99995 14.5V17.6923C5.99995 17.782 6.0288 17.8558 6.0865 17.9135C6.1442 17.9712 6.21793 18 6.30768 18H9.49995Z" fill="#1C1B1F"/>
</g>
</svg>
