<svg width="200" height="200" viewBox="0 0 200 200" fill="none" xmlns="http://www.w3.org/2000/svg">
<g clip-path="url(#clip0_1257_22453)">
<mask id="mask0_1257_22453" style="mask-type:luminance" maskUnits="userSpaceOnUse" x="0" y="0" width="200" height="200">
<path d="M200 0H0V200H200V0Z" fill="white"/>
</mask>
<g mask="url(#mask0_1257_22453)">
<path d="M200 0H0V200H200V0Z" fill="white"/>
<path d="M200 0H0V200H200V0Z" fill="url(#paint0_linear_1257_22453)"/>
<path opacity="0.3" d="M96.6182 -116.697L-118.328 98.249L-8.63012 207.947L206.316 -6.99927L96.6182 -116.697Z" fill="url(#paint1_linear_1257_22453)"/>
<path opacity="0.3" d="M64.8955 -148.421L-150.051 66.5258L-36.9137 179.663L178.033 -35.2835L64.8955 -148.421Z" fill="url(#paint2_linear_1257_22453)"/>
<path opacity="0.3" d="M64.8955 -148.421L-150.051 66.5258L-65.198 151.379L149.748 -63.5677L64.8955 -148.421Z" fill="url(#paint3_linear_1257_22453)"/>
</g>
</g>
<defs>
<linearGradient id="paint0_linear_1257_22453" x1="200" y1="200" x2="0" y2="0" gradientUnits="userSpaceOnUse">
<stop stop-color="#4FA0FF"/>
<stop offset="1" stop-color="#83F8FF"/>
</linearGradient>
<linearGradient id="paint1_linear_1257_22453" x1="206.317" y1="-6.99899" x2="-68.0592" y2="-90.3104" gradientUnits="userSpaceOnUse">
<stop stop-color="white" stop-opacity="0.6"/>
<stop offset="1" stop-color="white" stop-opacity="0"/>
</linearGradient>
<linearGradient id="paint2_linear_1257_22453" x1="178.033" y1="-35.2835" x2="-104.046" y2="-116.963" gradientUnits="userSpaceOnUse">
<stop stop-color="white" stop-opacity="0.6"/>
<stop offset="1" stop-color="white" stop-opacity="0"/>
</linearGradient>
<linearGradient id="paint3_linear_1257_22453" x1="149.748" y1="-63.5679" x2="-64.887" y2="-152.694" gradientUnits="userSpaceOnUse">
<stop stop-color="white" stop-opacity="0.6"/>
<stop offset="1" stop-color="white" stop-opacity="0"/>
</linearGradient>
<clipPath id="clip0_1257_22453">
<rect width="200" height="200" fill="white"/>
</clipPath>
</defs>
</svg>
