<svg width="24" height="24" viewBox="0 0 24 24" fill="none" xmlns="http://www.w3.org/2000/svg">
<mask id="mask0_1808_12654" style="mask-type:alpha" maskUnits="userSpaceOnUse" x="0" y="0" width="24" height="24">
<rect width="24" height="24" fill="#D9D9D9"/>
</mask>
<g mask="url(#mask0_1808_12654)">
<path d="M3.25 22.1153C3.0375 22.1153 2.85938 22.0434 2.71563 21.8996C2.57188 21.7558 2.5 21.5776 2.5 21.365C2.5 21.1524 2.57188 20.9743 2.71563 20.8307C2.85938 20.6871 3.0375 20.6154 3.25 20.6154H20.75C20.9625 20.6154 21.1406 20.6873 21.2843 20.8311C21.4281 20.9749 21.5 21.1531 21.5 21.3657C21.5 21.5783 21.4281 21.7563 21.2843 21.8999C21.1406 22.0435 20.9625 22.1153 20.75 22.1153H3.25ZM5.40385 19.5C5.14777 19.5 4.93311 19.4134 4.75988 19.2401C4.58663 19.0669 4.5 18.8522 4.5 18.5961V14.1538C3.93718 13.132 3.50738 12.1042 3.21057 11.0702C2.91379 10.0362 2.7654 9.01987 2.7654 8.02115C2.7654 7.11988 2.88014 6.21123 3.10963 5.2952C3.33911 4.37918 3.64488 3.40451 4.02693 2.37117C4.12179 2.11092 4.27756 1.90067 4.49423 1.74042C4.71089 1.58016 4.95768 1.50002 5.2346 1.50002C5.60382 1.50002 5.91727 1.63176 6.17495 1.89522C6.43263 2.15867 6.53776 2.46796 6.49033 2.82307L6.22495 4.9923C6.12495 5.83077 6.21341 6.64038 6.49033 7.42115C6.76726 8.20193 7.17463 8.89361 7.71245 9.49617C8.25028 10.0987 8.88971 10.5834 9.63073 10.95C10.3718 11.3167 11.1615 11.5 12 11.5C13.0192 11.5 13.9929 11.5882 14.9211 11.7644C15.8493 11.9407 16.65 12.1949 17.323 12.5269C18.0153 12.8718 18.5512 13.3128 18.9307 13.85C19.3102 14.3872 19.5 15.0538 19.5 15.85V18.5961C19.5 18.8522 19.4133 19.0669 19.2401 19.2401C19.0668 19.4134 18.8522 19.5 18.5961 19.5H5.40385ZM5.99998 18H18V15.85C18 15.4179 17.8904 15.0381 17.6711 14.7106C17.4519 14.383 17.1333 14.1179 16.7154 13.9154C16.1025 13.6205 15.375 13.3942 14.5327 13.2365C13.6904 13.0788 12.8461 13 12 13C10.9384 13 9.94005 12.7686 9.0048 12.3058C8.06953 11.8429 7.26633 11.2292 6.59518 10.4644C5.92403 9.69967 5.41698 8.82467 5.07403 7.83942C4.73108 6.85416 4.62306 5.84102 4.74998 4.8C4.58331 5.3 4.46248 5.82692 4.38748 6.38077C4.31248 6.93461 4.27498 7.4814 4.27498 8.02115C4.27498 8.93012 4.43459 9.85287 4.75383 10.7894C5.07304 11.726 5.48843 12.709 5.99998 13.7385V18ZM12 10.2692C11.0375 10.2692 10.2135 9.92654 9.52813 9.24112C8.84271 8.55572 8.5 7.73177 8.5 6.76927C8.5 5.80679 8.84271 4.98285 9.52813 4.29745C10.2135 3.61203 11.0375 3.26932 12 3.26932C12.9625 3.26932 13.7864 3.61203 14.4718 4.29745C15.1572 4.98285 15.5 5.80679 15.5 6.76927C15.5 7.73177 15.1572 8.55572 14.4718 9.24112C13.7864 9.92654 12.9625 10.2692 12 10.2692ZM12 8.76927C12.55 8.76927 13.0208 8.57344 13.4125 8.18177C13.8041 7.79011 14 7.31927 14 6.76927C14 6.21927 13.8041 5.74844 13.4125 5.35677C13.0208 4.96511 12.55 4.76927 12 4.76927C11.45 4.76927 10.9791 4.96511 10.5875 5.35677C10.1958 5.74844 9.99998 6.21927 9.99998 6.76927C9.99998 7.31927 10.1958 7.79011 10.5875 8.18177C10.9791 8.57344 11.45 8.76927 12 8.76927ZM8.26923 19.5V18.8346C8.26923 17.8077 8.62788 16.9311 9.34518 16.2048C10.0625 15.4785 10.9346 15.1154 11.9615 15.1154H14.9038C15.1163 15.1154 15.2944 15.1873 15.4382 15.3311C15.5819 15.4749 15.6538 15.6531 15.6538 15.8657C15.6538 16.0783 15.5819 16.2564 15.4382 16.4C15.2944 16.5436 15.1163 16.6153 14.9038 16.6153H11.9615C11.3404 16.6153 10.8197 16.8323 10.3995 17.2663C9.97929 17.7003 9.7692 18.2231 9.7692 18.8346V19.5H8.26923Z" fill="#344054"/>
</g>
</svg>
