<svg width="277" height="231" viewBox="0 0 277 231" fill="none" xmlns="http://www.w3.org/2000/svg">
<g clip-path="url(#clip0_1254_22170)">
<path d="M60.1294 144.357L64.8593 147.07C65.3379 147.344 65.8708 147.511 66.4207 147.559C66.9706 147.607 67.5243 147.535 68.0433 147.347C68.5622 147.159 69.0339 146.861 69.4255 146.472C69.817 146.084 70.119 145.615 70.3103 145.098C70.5162 144.542 70.5884 143.945 70.5211 143.356C70.4538 142.767 70.2489 142.202 69.9229 141.706C69.5968 141.211 69.1588 140.798 68.6439 140.502C68.1291 140.207 67.5518 140.035 66.9587 140.003L61.2308 139.688L43.9766 134.476L41.1949 124.08L33.9209 128.158L38.9224 139.977L60.1294 144.357Z" fill="#FFB8B8"/>
<path d="M37.5787 90.3995C36.4845 91.6376 36.682 93.1269 37.4789 94.3359C38.2758 95.545 39.6019 96.5509 40.7624 97.6177C41.508 98.303 42.1977 99.0304 42.5317 99.8549C42.7156 100.277 42.7758 100.742 42.7052 101.196C42.6346 101.65 42.4362 102.075 42.1329 102.422C41.373 103.319 39.9574 103.927 38.5761 104.447C34.6264 105.927 30.551 107.047 26.3994 107.794C29.8969 103.715 31.6476 99.1216 31.3911 94.6966C31.3373 93.768 31.1991 92.8307 31.524 91.9C31.7472 91.3413 32.1 90.8435 32.5535 90.4474C33.007 90.0513 33.5481 89.7684 34.1325 89.6217C35.5227 89.2233 37.3538 89.6174 37.5669 90.5266" fill="#2F2E41"/>
<path d="M7.61523 221.298L12.62 221.515L22.4979 175.972L13.9256 176.34L7.61523 221.298Z" fill="#FFB8B8"/>
<path d="M57.662 211.525L53.5276 213.696L27.667 175.399L35.9028 171.779L57.662 211.525Z" fill="#FFB8B8"/>
<path d="M28.8362 104.735C33.2082 104.735 36.7525 101.197 36.7525 96.8332C36.7525 92.4693 33.2082 88.9316 28.8362 88.9316C24.4642 88.9316 20.9199 92.4693 20.9199 96.8332C20.9199 101.197 24.4642 104.735 28.8362 104.735Z" fill="#FFB8B8"/>
<path d="M24.8052 100.976C24.8052 100.976 21.9766 106.84 18.0599 106.623C18.0599 106.623 10.6618 103.582 8.26832 111.835L5.65723 118.351L40.2542 124.215C40.2542 124.215 38.2959 112.27 33.7265 112.053C33.7265 112.053 28.5043 111.618 29.1571 109.664C29.8098 107.709 32.2033 103.148 32.2033 103.148L24.8052 100.976Z" fill="#FFB8B8"/>
<path d="M36.3382 130.948L31.116 142.242L35.4197 160.496L56.3804 199.76C56.3804 199.76 46.7272 208.405 44.3209 209.791C42.2335 210.994 24.8561 178.393 24.2216 171.674C24.0121 169.456 20.2017 214.377 20.2017 214.377C20.2017 214.377 5.83657 212.011 1.8252 211.224C1.8252 211.224 4.71524 190.792 6.41932 171.674C7.73286 156.936 6.53847 143.581 13.9263 137.246L13.2735 124.65L30.6808 123.998L36.3382 130.948Z" fill="#2F2E41"/>
<path d="M9.30037 229.675L17.2901 230.833C17.9092 231.063 18.592 231.055 19.2055 230.81C19.819 230.565 20.3193 230.101 20.6088 229.509C20.8439 229.027 20.9276 228.486 20.8488 227.956C20.77 227.426 20.5323 226.932 20.1671 226.54L16.7759 222.894L14.3352 217.638C12.8755 216.149 11.8777 216.676 11.3198 219.121L7.41814 217.898L6.39513 224.762C6.24203 225.789 6.44707 226.837 6.97594 227.732C7.5048 228.626 8.3254 229.312 9.30037 229.675Z" fill="#2F2E41"/>
<path d="M54.8411 222.492L62.9145 222.464C63.5608 222.601 64.235 222.493 64.8058 222.16C65.3765 221.828 65.8029 221.296 66.0019 220.667C66.1635 220.156 66.1665 219.608 66.0104 219.096C65.8543 218.583 65.5465 218.13 65.1274 217.795L61.2357 214.688L58.0466 209.847C56.3834 208.589 55.474 209.256 55.2827 211.756L51.2432 211.12V218.059C51.2432 219.098 51.6005 220.105 52.2555 220.912C52.9105 221.719 53.8232 222.277 54.8411 222.492Z" fill="#2F2E41"/>
<path d="M24.8377 84.6869C23.493 84.1004 21.8929 84.3304 20.5947 85.0133C19.2965 85.6962 18.2592 86.7852 17.3514 87.936C14.2256 91.9181 12.4028 96.7638 12.1305 101.815C12.0594 103.196 12.1261 104.656 12.8463 105.837C13.6378 107.135 15.0865 107.88 16.5215 108.387C21.3324 110.06 26.6106 109.77 31.2086 107.58C28.7909 105.624 26.5539 103.455 24.5244 101.099C24.144 100.658 23.7464 100.091 23.9398 99.5415C24.0616 99.2742 24.2504 99.0428 24.488 98.8697L29.1488 94.8297L29.0314 96.4641C29.9583 96.41 30.8491 96.086 31.5935 95.5321C32.3379 94.9783 32.9035 94.2188 33.2201 93.3476C32.9954 93.8004 33.4245 94.3564 33.9203 94.4582C34.4161 94.5601 34.918 94.356 35.383 94.1563C36.5107 93.672 37.7356 93.0952 38.2359 91.9762C38.3934 91.5817 38.4687 91.1593 38.4574 90.7348C38.446 90.3103 38.3482 89.8926 38.1698 89.5071C37.808 88.7377 37.2917 88.0506 36.653 87.4885C35.0854 86.044 33.1782 85.0173 31.1077 84.5035C29.0373 83.9897 26.8705 84.0054 24.8077 84.549" fill="#2F2E41"/>
<path d="M23.2562 143.227L26.7321 147.423C27.0838 147.848 27.5241 148.191 28.0222 148.428C28.5203 148.665 29.0644 148.792 29.6163 148.797C30.1683 148.803 30.7149 148.689 31.218 148.462C31.7212 148.236 32.1688 147.902 32.5295 147.486C32.9178 147.037 33.1952 146.503 33.3392 145.928C33.4833 145.353 33.49 144.752 33.3589 144.173C33.2278 143.595 32.9624 143.055 32.5843 142.598C32.2062 142.141 31.7257 141.778 31.1817 141.54L25.9283 139.24L11.6026 128.317L12.6513 117.608L4.40625 118.88L4.93613 131.699L23.2562 143.227Z" fill="#FFB8B8"/>
<path d="M44.8238 133.771C44.8238 133.771 41.4358 121.386 39.6483 121.389C37.8609 121.392 35.4674 121.175 35.4674 121.175C35.4674 121.175 32.6387 112.921 18.0601 115.528C3.48147 118.134 9.79162 113.139 5.65738 115.093C1.52314 117.048 0 130.731 0 130.731C0 130.731 22.4119 123.346 27.1989 127.473C29.948 129.873 32.9375 131.983 36.1201 133.771C36.1201 133.771 33.9442 139.201 44.8238 133.771Z" fill="#2F2E41"/>
<path d="M122.52 221.813H34.6572V222.386H122.52V221.813Z" fill="#3F3D56"/>
<path d="M189.996 122.936C219.333 122.936 243.115 99.1981 243.115 69.9154C243.115 40.6328 219.333 16.8945 189.996 16.8945C160.658 16.8945 136.876 40.6328 136.876 69.9154C136.876 99.1981 160.658 122.936 189.996 122.936Z" fill="#E6E6E6"/>
<path d="M179.947 40.3955H92.084V40.9687H179.947V40.3955Z" fill="#3F3D56"/>
<path d="M264.651 56.1582H92.084V56.7314H264.651V56.1582Z" fill="#3F3D56"/>
<path d="M211.531 112.618C182.082 112.618 158.124 88.7047 158.124 59.3109C158.124 29.9171 182.082 6.00342 211.531 6.00342C240.979 6.00342 264.937 29.9171 264.937 59.3109C264.937 88.7047 240.979 112.618 211.531 112.618ZM211.531 6.57662C182.399 6.57662 158.698 30.2331 158.698 59.3109C158.698 88.3887 182.399 112.045 211.531 112.045C240.663 112.045 264.363 88.3887 264.363 59.3109C264.363 30.2331 240.663 6.57662 211.531 6.57662Z" fill="#3F3D56"/>
<path d="M206.604 13.9978C210.476 13.9978 213.616 10.8643 213.616 6.99889C213.616 3.13351 210.476 0 206.604 0C202.731 0 199.592 3.13351 199.592 6.99889C199.592 10.8643 202.731 13.9978 206.604 13.9978Z" fill="#2E90FA"/>
<path d="M158.324 60.0886C160.83 60.0886 162.861 58.0611 162.861 55.5599C162.861 53.0588 160.83 51.0312 158.324 51.0312C155.818 51.0312 153.787 53.0588 153.787 55.5599C153.787 58.0611 155.818 60.0886 158.324 60.0886Z" fill="#FF6584"/>
<path d="M266.638 65.9767C272.361 65.9767 277 61.3462 277 55.6341C277 49.9221 272.361 45.2915 266.638 45.2915C260.916 45.2915 256.276 49.9221 256.276 55.6341C256.276 61.3462 260.916 65.9767 266.638 65.9767Z" fill="#2E90FA"/>
<path d="M120.987 96.4429H89.5462V97.0161H120.987C122.535 97.0161 124.019 97.6298 125.114 98.7224C126.209 99.8149 126.823 101.297 126.823 102.842C126.823 104.387 126.209 105.868 125.114 106.961C124.019 108.054 122.535 108.667 120.987 108.667H73.4117C71.8638 108.667 70.3792 108.054 69.2847 106.961C68.1902 105.868 67.5752 104.387 67.5752 102.842C67.5752 101.297 68.1902 99.8149 69.2847 98.7224C70.3792 97.6298 71.8638 97.0161 73.4117 97.0161H75.1896V96.4429H73.4117C71.7115 96.4429 70.0809 97.117 68.8786 98.317C67.6764 99.5171 67.001 101.145 67.001 102.842C67.001 104.539 67.6764 106.166 68.8786 107.366C70.0809 108.566 71.7115 109.24 73.4117 109.24H120.987C122.687 109.24 124.318 108.566 125.52 107.366C126.722 106.166 127.398 104.539 127.398 102.842C127.398 101.145 126.722 99.5171 125.52 98.317C124.318 97.117 122.687 96.4429 120.987 96.4429Z" fill="#3F3D56"/>
<path d="M120.987 116.218H89.5462V116.791H120.987C122.535 116.791 124.019 117.405 125.114 118.498C126.209 119.59 126.823 121.072 126.823 122.617C126.823 124.162 126.209 125.644 125.114 126.736C124.019 127.829 122.535 128.443 120.987 128.443H73.4117C71.8638 128.443 70.3792 127.829 69.2847 126.736C68.1902 125.644 67.5752 124.162 67.5752 122.617C67.5752 121.072 68.1902 119.59 69.2847 118.498C70.3792 117.405 71.8638 116.791 73.4117 116.791H75.1896V116.218H73.4117C71.7115 116.218 70.0809 116.892 68.8786 118.092C67.6764 119.292 67.001 120.92 67.001 122.617C67.001 124.314 67.6764 125.942 68.8786 127.142C70.0809 128.342 71.7115 129.016 73.4117 129.016H120.987C122.687 129.016 124.318 128.342 125.52 127.142C126.722 125.942 127.398 124.314 127.398 122.617C127.398 120.92 126.722 119.292 125.52 118.092C124.318 116.892 122.687 116.218 120.987 116.218Z" fill="#3F3D56"/>
<path d="M120.987 135.994H89.5462V136.567H120.987C122.535 136.567 124.019 137.181 125.114 138.273C126.209 139.366 126.823 140.847 126.823 142.392C126.823 143.938 126.209 145.419 125.114 146.512C124.019 147.604 122.535 148.218 120.987 148.218H73.4117C71.8638 148.218 70.3792 147.604 69.2847 146.512C68.1902 145.419 67.5752 143.938 67.5752 142.392C67.5752 140.847 68.1902 139.366 69.2847 138.273C70.3792 137.181 71.8638 136.567 73.4117 136.567H75.1896V135.994H73.4117C71.7115 135.994 70.0809 136.668 68.8786 137.868C67.6764 139.068 67.001 140.695 67.001 142.392C67.001 144.09 67.6764 145.717 68.8786 146.917C70.0809 148.117 71.7115 148.791 73.4117 148.791H120.987C122.687 148.791 124.318 148.117 125.52 146.917C126.722 145.717 127.398 144.09 127.398 142.392C127.398 140.695 126.722 139.068 125.52 137.868C124.318 136.668 122.687 135.994 120.987 135.994Z" fill="#3F3D56"/>
<path d="M78.7386 94.9289C78.2907 94.9364 77.8637 95.1192 77.5497 95.438C77.2356 95.7568 77.0596 96.186 77.0596 96.6331C77.0596 97.0802 77.2356 97.5093 77.5497 97.8281C77.8637 98.1469 78.2907 98.3297 78.7386 98.3372H86.2286C86.6805 98.3432 87.1164 98.1701 87.4407 97.8559C87.765 97.5417 87.9513 97.112 87.9587 96.661C87.9661 96.2099 87.7941 95.7743 87.4803 95.4497C87.1665 95.125 86.7366 94.9378 86.2847 94.9289C86.266 94.9286 86.2473 94.9286 86.2286 94.9289H78.7386Z" fill="#2E90FA"/>
<path d="M78.7386 114.991C78.2907 114.998 77.8637 115.181 77.5497 115.5C77.2356 115.819 77.0596 116.248 77.0596 116.695C77.0596 117.142 77.2356 117.571 77.5497 117.89C77.8637 118.209 78.2907 118.392 78.7386 118.399H86.2286C86.6805 118.405 87.1164 118.232 87.4407 117.918C87.765 117.604 87.9513 117.174 87.9587 116.723C87.9661 116.272 87.7941 115.836 87.4803 115.512C87.1665 115.187 86.7366 115 86.2847 114.991C86.266 114.991 86.2473 114.991 86.2286 114.991H78.7386Z" fill="#FF6584"/>
<path d="M78.739 134.48C78.2911 134.487 77.864 134.67 77.5498 134.989C77.2356 135.307 77.0596 135.737 77.0596 136.184C77.0596 136.631 77.2356 137.06 77.5498 137.379C77.864 137.698 78.2911 137.881 78.739 137.888H86.2291C86.6816 137.895 87.1183 137.722 87.4433 137.408C87.7684 137.094 87.9551 136.663 87.9625 136.212C87.97 135.76 87.7975 135.324 87.483 134.999C87.1684 134.675 86.7376 134.488 86.2851 134.48C86.2664 134.479 86.2478 134.479 86.2291 134.48H78.739Z" fill="#3F3D56"/>
<path d="M75.768 101.138C75.3201 101.145 74.8931 101.328 74.579 101.647C74.2649 101.966 74.0889 102.395 74.0889 102.842C74.0889 103.289 74.2649 103.718 74.579 104.037C74.8931 104.356 75.3201 104.539 75.768 104.546H118.575C118.8 104.55 119.023 104.51 119.232 104.428C119.441 104.346 119.632 104.224 119.794 104.068C119.955 103.913 120.084 103.727 120.174 103.521C120.263 103.315 120.311 103.094 120.315 102.87C120.319 102.646 120.278 102.423 120.195 102.215C120.113 102.006 119.99 101.816 119.833 101.655C119.677 101.494 119.49 101.366 119.284 101.277C119.078 101.188 118.856 101.141 118.632 101.138C118.613 101.138 118.594 101.138 118.575 101.138H75.768Z" fill="#E6E6E6"/>
<path d="M75.768 120.913C75.3201 120.921 74.8931 121.104 74.579 121.422C74.2649 121.741 74.0889 122.17 74.0889 122.617C74.0889 123.065 74.2649 123.494 74.579 123.813C74.8931 124.131 75.3201 124.314 75.768 124.322H118.575C118.8 124.326 119.023 124.286 119.232 124.204C119.441 124.122 119.632 123.999 119.794 123.844C119.955 123.688 120.084 123.502 120.174 123.296C120.263 123.091 120.311 122.87 120.315 122.645C120.319 122.421 120.278 122.199 120.195 121.99C120.113 121.782 119.99 121.592 119.833 121.431C119.677 121.27 119.49 121.141 119.284 121.053C119.078 120.964 118.856 120.916 118.632 120.913C118.613 120.913 118.594 120.913 118.575 120.913H75.768Z" fill="#E6E6E6"/>
<path d="M75.768 140.689C75.3201 140.696 74.8931 140.879 74.579 141.198C74.2649 141.517 74.0889 141.946 74.0889 142.393C74.0889 142.84 74.2649 143.269 74.579 143.588C74.8931 143.907 75.3201 144.09 75.768 144.097H118.575C118.8 144.101 119.023 144.061 119.232 143.979C119.441 143.897 119.632 143.775 119.794 143.619C119.955 143.463 120.084 143.277 120.174 143.072C120.263 142.866 120.311 142.645 120.315 142.421C120.319 142.197 120.278 141.974 120.195 141.766C120.113 141.557 119.99 141.367 119.833 141.206C119.677 141.045 119.49 140.917 119.284 140.828C119.078 140.739 118.856 140.692 118.632 140.689C118.613 140.688 118.594 140.688 118.575 140.689H75.768Z" fill="#E6E6E6"/>
<path d="M119.26 204.705C118.814 201.833 117.943 199.043 116.676 196.426L116.492 196.045L115.12 197.562L116.136 195.302L116.07 195.17C115.173 193.399 114.179 191.677 113.093 190.015L112.892 189.707L112.623 190.004L112.811 189.586L112.717 189.444C111.371 187.43 110.338 186.156 110.327 186.143L110.035 185.784L109.847 186.212C109.812 186.291 106.396 194.149 105.943 201.914L105.936 202.035L108.236 204.809L105.891 203.34L105.895 203.873C105.902 204.786 105.964 205.697 106.081 206.602C106.184 207.381 106.306 208.141 106.446 208.883C106.667 208.89 106.883 208.957 107.069 209.077C106.907 208.248 106.768 207.396 106.65 206.522C106.56 205.823 106.502 205.114 106.48 204.406L111.016 207.249L106.524 201.829C106.933 195.264 109.471 188.65 110.184 186.904C110.566 187.399 111.288 188.36 112.151 189.644L110.582 193.135L112.819 190.66C113.788 192.167 114.682 193.721 115.495 195.318L113.079 200.694L116.346 197.078C117.487 199.527 118.277 202.124 118.692 204.793C119.264 209.104 119.152 213.245 118.378 216.454C117.636 219.528 116.328 221.417 114.791 221.638C114.474 221.681 114.152 221.662 113.843 221.581C113.595 221.757 113.297 221.848 112.993 221.84H112.909C113.386 222.105 113.921 222.248 114.466 222.258C114.601 222.258 114.736 222.248 114.869 222.229C116.677 221.97 118.121 219.97 118.935 216.599C119.727 213.318 119.843 209.096 119.26 204.705Z" fill="#3F3D56"/>
<path d="M114.2 222.032C111.835 222.032 108.425 220.733 105.042 218.369C104.545 218.018 104.069 217.637 103.619 217.227L103.24 216.881L104.673 216.47L102.765 216.4L102.685 216.316C99.11 212.579 96.8855 207.3 96.8633 207.248L96.6895 206.831L97.1415 206.851C97.1865 206.853 98.2611 206.904 99.8762 207.132L99.9769 207.147V207.146L100.331 207.199C101.65 207.4 102.956 207.674 104.244 208.02L104.382 208.058L104.812 209.114L104.747 208.166L105.141 208.28C107.009 208.818 108.784 209.64 110.403 210.715C115.547 214.31 118.393 218.804 116.888 220.948C116.374 221.681 115.428 222.031 114.2 222.032ZM104.396 217.146C104.71 217.411 105.037 217.664 105.373 217.9C110.083 221.193 115.142 222.438 116.418 220.62C117.694 218.801 114.791 214.482 110.08 211.189C108.626 210.224 107.042 209.47 105.376 208.949L105.631 212.651L103.957 208.537C102.855 208.245 101.728 208.005 100.599 207.822L100.784 210.508L99.6321 207.677C98.7397 207.555 98.0204 207.488 97.5828 207.454C98.1794 208.762 100.151 212.8 103.02 215.836L108.283 216.028L104.396 217.146Z" fill="#3F3D56"/>
</g>
<defs>
<clipPath id="clip0_1254_22170">
<rect width="277" height="231" fill="white"/>
</clipPath>
</defs>
</svg>
