<svg width="382" height="172" viewBox="0 0 382 172" fill="none" xmlns="http://www.w3.org/2000/svg">
<g clip-path="url(#clip0_1254_22121)">
<path d="M31.4308 157.118C32.91 157.638 34.498 157.769 36.0421 157.497C37.5862 157.224 39.0341 156.559 40.2466 155.565C43.3343 152.972 44.3036 148.7 45.0901 144.745L47.4198 133.045L42.5422 136.406C39.0343 138.822 35.4477 141.316 33.0187 144.817C30.5897 148.317 29.5297 153.095 31.4811 156.882" fill="#E6E6E6"/>
<path d="M31.8472 171.282C31.3535 167.685 30.8458 164.041 31.1921 160.404C31.4998 157.175 32.4843 154.021 34.4895 151.434C35.5538 150.064 36.8488 148.89 38.3163 147.965C38.6991 147.724 39.051 148.33 38.6702 148.57C36.1311 150.176 34.1671 152.547 33.0615 155.341C31.8404 158.448 31.6444 161.835 31.8565 165.136C31.9838 167.132 32.2533 169.114 32.5253 171.096C32.5472 171.185 32.534 171.28 32.4884 171.36C32.4429 171.44 32.3684 171.5 32.2802 171.527C32.1905 171.551 32.0949 171.539 32.0142 171.493C31.9334 171.447 31.874 171.372 31.8488 171.282L31.8472 171.282Z" fill="#F2F2F2"/>
<path d="M362.448 152.54C360.872 153.094 359.18 153.233 357.535 152.943C355.89 152.653 354.347 151.945 353.056 150.885C349.766 148.122 348.734 143.573 347.895 139.359L345.413 126.894L350.61 130.474C354.347 133.049 358.169 135.706 360.756 139.435C363.344 143.164 364.473 148.255 362.394 152.29" fill="#E6E6E6"/>
<path d="M361.645 168.499C362.3 163.731 362.972 158.902 362.513 154.083C362.105 149.804 360.8 145.625 358.143 142.196C356.733 140.381 355.017 138.825 353.072 137.599C352.565 137.279 352.098 138.082 352.603 138.401C355.968 140.529 358.571 143.671 360.036 147.373C361.654 151.491 361.914 155.98 361.635 160.354C361.467 162.999 361.109 165.627 360.749 168.252C360.721 168.37 360.738 168.495 360.799 168.601C360.859 168.708 360.957 168.787 361.074 168.823C361.192 168.855 361.319 168.839 361.426 168.778C361.533 168.718 361.612 168.617 361.645 168.499L361.645 168.499Z" fill="#F2F2F2"/>
<path d="M356.937 160.849C356.261 161.877 355.332 162.713 354.24 163.278C353.147 163.842 351.927 164.115 350.699 164.071C347.54 163.921 344.907 161.716 342.537 159.622L335.527 153.43L340.167 153.208C343.503 153.048 346.926 152.898 350.104 153.929C353.281 154.959 356.212 157.436 356.793 160.726" fill="#E6E6E6"/>
<path d="M363.495 171.24C360.345 165.665 356.693 159.47 350.166 157.489C348.352 156.941 346.449 156.744 344.561 156.91C343.965 156.962 344.114 157.879 344.708 157.828C347.874 157.565 351.033 158.402 353.654 160.196C356.177 161.914 358.141 164.302 359.803 166.835C360.821 168.386 361.734 170.003 362.646 171.618C362.937 172.134 363.789 171.762 363.495 171.24Z" fill="#F2F2F2"/>
<path d="M274.108 103.79H116.247V70.0327H274.108V103.79Z" fill="white"/>
<path d="M136.703 95.4865C141.437 95.4865 145.274 91.6472 145.274 86.9112C145.274 82.1752 141.437 78.3359 136.703 78.3359C131.969 78.3359 128.132 82.1752 128.132 86.9112C128.132 91.6472 131.969 95.4865 136.703 95.4865Z" fill="#2E90FA"/>
<path d="M156.499 81.1943C156.12 81.1943 155.757 81.3449 155.489 81.6129C155.221 81.881 155.07 82.2445 155.07 82.6235C155.07 83.0026 155.221 83.3661 155.489 83.6342C155.757 83.9022 156.12 84.0527 156.499 84.0527H260.799C261.178 84.0519 261.54 83.9009 261.807 83.6329C262.075 83.365 262.225 83.002 262.225 82.6235C262.225 82.2451 262.075 81.8821 261.807 81.6141C261.54 81.3462 261.178 81.1952 260.799 81.1943H156.499Z" fill="#2E90FA"/>
<path d="M156.499 89.7695C156.12 89.7687 155.756 89.9185 155.488 90.186C155.219 90.4535 155.068 90.8167 155.067 91.1957C155.067 91.5748 155.216 91.9386 155.484 92.2072C155.751 92.4758 156.114 92.6271 156.493 92.6279H222.433C222.621 92.6283 222.807 92.5915 222.98 92.5199C223.154 92.4482 223.312 92.3429 223.445 92.2102C223.577 92.0774 223.683 91.9198 223.755 91.7462C223.827 91.5727 223.864 91.3866 223.864 91.1987C223.864 91.0109 223.827 90.8248 223.755 90.6512C223.683 90.4777 223.577 90.32 223.445 90.1873C223.312 90.0545 223.154 89.9493 222.98 89.8776C222.807 89.806 222.621 89.7692 222.433 89.7695H156.499Z" fill="#2E90FA"/>
<path d="M274.108 103.79H116.247V70.0327H274.108V103.79ZM118.657 101.379H271.698V72.4439H118.657V101.379Z" fill="#CCCCCC"/>
<path d="M318.564 95.4047C318.411 94.9533 318.358 94.4738 318.41 94C318.462 93.5261 318.617 93.0695 318.865 92.6621C319.112 92.2548 319.446 91.9067 319.842 91.6423C320.239 91.378 320.689 91.2038 321.16 91.1321L322.946 83.8984L327.605 83.9127L324.938 94.0926C325.006 94.8922 324.779 95.6891 324.299 96.3321C323.819 96.9751 323.119 97.4196 322.334 97.5813C321.548 97.7431 320.73 97.6108 320.035 97.2096C319.341 96.8085 318.817 96.1663 318.564 95.4047Z" fill="#FFB7B7"/>
<path d="M326.429 90.7237L319.294 90.2289L322.75 69.6261L320.551 46.9401L327.763 43.9814L332.573 69.1744L332.56 69.2203L326.429 90.7237Z" fill="#3F3D56"/>
<path d="M271.259 88.3092C271.251 87.8326 271.347 87.3599 271.541 86.9246C271.735 86.4892 272.022 86.1017 272.382 85.7893C272.742 85.477 273.166 85.2474 273.625 85.1167C274.083 84.986 274.564 84.9574 275.035 85.033L278.943 78.6899L283.375 80.1259L277.73 89.0059C277.551 89.7882 277.091 90.4776 276.438 90.9433C275.784 91.4091 274.983 91.6189 274.185 91.533C273.388 91.4471 272.649 91.0715 272.11 90.4773C271.571 89.8832 271.268 89.1117 271.259 88.3092Z" fill="#FFB7B7"/>
<path d="M293.263 167.621H289.468L287.662 152.974L293.264 152.975L293.263 167.621Z" fill="#FFB7B7"/>
<path d="M294.231 171.302L281.992 171.302V171.147C281.992 169.883 282.494 168.671 283.387 167.777C284.281 166.884 285.492 166.381 286.756 166.381L294.231 166.382L294.231 171.302Z" fill="#2F2E41"/>
<path d="M319.742 167.621H315.946L314.141 152.974L319.742 152.975L319.742 167.621Z" fill="#FFB7B7"/>
<path d="M320.71 171.302L308.472 171.302V171.147C308.472 169.883 308.974 168.671 309.867 167.777C310.76 166.884 311.972 166.381 313.235 166.381L320.71 166.382L320.71 171.302Z" fill="#2F2E41"/>
<path d="M316.132 30.0811C321.112 30.0811 325.149 26.0422 325.149 21.0599C325.149 16.0775 321.112 12.0386 316.132 12.0386C311.152 12.0386 307.115 16.0775 307.115 21.0599C307.115 26.0422 311.152 30.0811 316.132 30.0811Z" fill="#FFB8B8"/>
<path d="M313.087 20.5654C311.74 21.1293 310.231 21.1711 308.854 20.6827C307.478 20.1943 306.332 19.2107 305.641 17.9235C304.95 16.6363 304.763 15.1378 305.116 13.72C305.468 12.3021 306.336 11.0665 307.55 10.2538C309.95 8.647 313.534 9.17883 315.861 11.0424C317.429 10.3286 319.184 10.1326 320.872 10.4829C322.559 10.8333 324.091 11.7117 325.247 12.991C327.493 15.5905 327.738 19.7166 326.101 22.7468C325.385 24.3266 325.068 26.0578 325.176 27.7889C325.285 29.52 325.816 31.1981 326.723 32.6761C326.019 32.6474 324.469 32.5169 322.529 32.3494C321.968 32.301 321.725 30.6516 321.11 30.5986C320.567 30.5518 319.656 32.1016 319.088 32.0536C314.875 31.6975 310.159 31.3358 308.022 31.4065C309.633 27.6348 311.243 23.8632 313.087 20.5654Z" fill="#2F2E41"/>
<path d="M323.047 84.6133C323.047 84.6133 325.978 87.636 324.188 103.245L322.952 136.388L320.765 165.736L313.727 165.268L307.546 97.7209L298.892 122.438L294.232 163.301L287.48 162.833L286.327 122.197L289.287 90.7926L323.047 84.6133Z" fill="#2F2E41"/>
<path d="M294.042 92.6836C290.442 92.6838 288.992 92.2507 288.886 92.2173L288.719 92.1648L288.748 91.9921C288.772 91.8502 291.191 77.74 294.51 70.3321L296.844 40.2902C296.911 39.3977 297.278 38.5541 297.885 37.8969C298.493 37.2397 299.305 36.8077 300.189 36.6713L306.126 35.7388L309.757 32.5396L318.457 33.0209L319.224 36.7027C320.265 36.9937 327.131 39.099 327.811 44.1404L327.819 44.2036L327.79 44.2599L315.211 68.4702C316.274 69.5198 324.674 78.1535 325.245 89.1909L325.258 89.4564L324.999 89.3972C324.975 89.3923 322.287 88.8811 308.15 91.2721C301.612 92.3777 297.068 92.6836 294.042 92.6836Z" fill="#3F3D56"/>
<path d="M280.097 88.163L274.97 84.2126L286.414 61.3057L297.058 38.8548C297.206 38.541 297.447 38.2803 297.748 38.1077C298.049 37.935 298.396 37.8586 298.742 37.8888C299.088 37.9189 299.416 38.0542 299.683 38.2764C299.949 38.4986 300.142 38.7971 300.234 39.1318L302.868 48.6939L294.63 70.1386L280.097 88.163Z" fill="#3F3D56"/>
<path d="M381.598 172H228.557C228.45 172 228.348 171.958 228.273 171.882C228.198 171.807 228.155 171.705 228.155 171.598C228.155 171.492 228.198 171.389 228.273 171.314C228.348 171.239 228.45 171.196 228.557 171.196H381.598C381.704 171.196 381.807 171.239 381.882 171.314C381.957 171.389 382 171.492 382 171.598C382 171.705 381.957 171.807 381.882 171.882C381.807 171.958 381.704 172 381.598 172Z" fill="#CBCBCB"/>
<path d="M205.197 50.6355H183.506V28.9346H194.351V29.7383H184.309V49.8318H204.393V39.785H205.197V50.6355Z" fill="#3F3D56"/>
<path d="M193.944 44.2251L188.675 38.1717L189.583 37.38L193.955 42.4014L205.952 28.9355L206.851 29.7377L193.944 44.2251Z" fill="#2E90FA"/>
<path d="M70.5762 27.0216L71.0833 24.4848C71.0833 24.4848 78.5426 21.9479 79.3771 27.0216H70.5762Z" fill="#E6E6E6"/>
<path d="M84.8924 166.704H89.7825L92.109 147.833H84.8916L84.8924 166.704Z" fill="#9F616A"/>
<path d="M83.6445 165.107L93.2751 165.106H93.2755C94.9032 165.107 96.4642 165.753 97.6152 166.905C98.7661 168.056 99.4128 169.618 99.4129 171.247V171.446L83.6448 171.447L83.6445 165.107Z" fill="#2F2E41"/>
<path d="M61.3182 166.704H66.2083L68.5348 147.833H61.3174L61.3182 166.704Z" fill="#9F616A"/>
<path d="M60.0713 165.107L69.7019 165.106H69.7023C71.33 165.107 72.891 165.753 74.0419 166.905C75.1929 168.056 75.8395 169.618 75.8397 171.247V171.446L60.0716 171.447L60.0713 165.107Z" fill="#2F2E41"/>
<path d="M63.4769 37.6765L57.8983 37.1689L54.3486 53.912L54.8556 69.1332L60.4341 89.428L68.0412 84.8616L63.9842 64.0596L63.4769 37.6765Z" fill="#3F3D56"/>
<path d="M59.9456 87.652L61.1944 98.3067L62.3669 123.168L59.6729 160.215L69.3084 159.698L74.031 121.138L76.9155 103.38L80.9725 123.675L83.5083 161.728L93.3973 160.935V123.541L93.6508 96.2773L90.1011 85.6226L59.9456 87.652Z" fill="#2F2E41"/>
<path d="M80.7197 27.529C80.7197 27.529 77.1698 22.4553 70.5771 26.0069L67.5343 30.0659L57.8987 37.169L59.9273 61.0153L57.3916 90.9501L93.398 90.4427L87.3124 60.508V28.5438L80.7197 27.529Z" fill="#3F3D56"/>
<path opacity="0.25" d="M61.1949 45.5903L58.2871 80.3741L61.9557 61.5224L61.1949 45.5903Z" fill="black"/>
<path d="M121.721 74.7548C121.203 74.9308 120.653 74.9911 120.11 74.9314C119.566 74.8717 119.042 74.6935 118.575 74.4094C118.108 74.1252 117.708 73.742 117.405 73.2868C117.102 72.8315 116.902 72.3153 116.82 71.7745L108.522 69.7229L108.539 64.374L120.216 67.4359C121.133 67.3579 122.047 67.6193 122.785 68.1705C123.522 68.7217 124.032 69.5244 124.218 70.4266C124.403 71.3287 124.252 72.2676 123.791 73.0654C123.331 73.8631 122.595 74.4642 121.721 74.7548Z" fill="#9F616A"/>
<path d="M113.045 64.3097L111.649 72.3066L115.146 72.9174L116.542 64.9204L113.045 64.3097Z" fill="#E6E6E6"/>
<path d="M75.0753 21.6683C80.6996 21.6683 85.2589 17.1068 85.2589 11.4799C85.2589 5.85301 80.6996 1.2915 75.0753 1.2915C69.451 1.2915 64.8916 5.85301 64.8916 11.4799C64.8916 17.1068 69.451 21.6683 75.0753 21.6683Z" fill="#9F616A"/>
<path d="M75.8361 20.4673C73.3447 21.0657 70.7198 20.7164 68.4713 19.4872C66.2228 18.2579 64.5112 16.2366 63.6689 13.8156C62.8265 11.3946 62.9136 8.7468 63.9132 6.38644C64.9127 4.02607 66.7535 2.12161 69.0778 1.04291C70.8678 0.243647 72.8253 -0.1078 74.7814 0.0189048C77.827 0.179106 80.7872 1.30531 83.836 1.22232L84.2779 1.93295L85.9432 1.52888L86.3001 2.85168L86.7388 2.83649C87.5245 4.29742 86.2603 6.38898 84.6021 6.37128C83.9501 6.29607 83.3072 6.15596 82.6829 5.95302C82.041 5.8154 81.285 5.8497 80.8424 6.33477C80.2671 6.96514 80.5175 7.94885 80.6375 8.79397C80.7574 9.63909 80.4578 10.7775 79.6051 10.805C79.1694 10.8191 78.7551 10.5066 78.3271 10.5888C77.8285 10.6845 77.5765 11.2868 77.6493 11.7894C77.7727 12.2826 77.9741 12.7529 78.2457 13.1826C78.8223 14.4405 78.914 15.867 78.5033 17.1884C78.0926 18.5098 77.2084 19.6328 76.0205 20.3417" fill="#2F2E41"/>
<path d="M84.8914 30.504L87.3119 28.5436C87.3119 28.5436 92.1971 28.2038 92.1089 33.3851L99.9255 57.8475L114.921 63.162L112.9 73.6068L91.6839 65.5205L80.9072 47.6501L84.8914 30.504Z" fill="#3F3D56"/>
<path d="M153.443 172H0.401682C0.29515 172 0.19298 171.958 0.11765 171.882C0.0423197 171.807 0 171.705 0 171.598C0 171.492 0.0423197 171.389 0.11765 171.314C0.19298 171.239 0.29515 171.196 0.401682 171.196H153.443C153.549 171.196 153.651 171.239 153.727 171.314C153.802 171.389 153.844 171.492 153.844 171.598C153.844 171.705 153.802 171.807 153.727 171.882C153.651 171.958 153.549 172 153.443 172Z" fill="#CBCBCB"/>
</g>
<defs>
<clipPath id="clip0_1254_22121">
<rect width="382" height="172" fill="white"/>
</clipPath>
</defs>
</svg>
