<svg width="252" height="189" viewBox="0 0 252 189" fill="none" xmlns="http://www.w3.org/2000/svg">
<g clip-path="url(#clip0_1254_22029)">
<path d="M230.264 168.483L230.642 159.985C234.585 157.879 238.984 156.766 243.455 156.744C237.301 161.771 238.07 171.461 233.898 178.221C232.581 180.319 230.807 182.094 228.71 183.415C226.612 184.736 224.244 185.568 221.781 185.85L216.631 189C215.925 185.064 216.08 181.022 217.088 177.152C218.095 173.282 219.931 169.676 222.467 166.583C223.907 164.862 225.559 163.329 227.383 162.02C228.616 165.269 230.264 168.483 230.264 168.483Z" fill="#F2F2F2"/>
<path d="M53.4629 92.9338C53.1227 92.6235 52.8546 92.2425 52.6777 91.8175C52.5008 91.3926 52.4192 90.934 52.4388 90.4742C52.4585 90.0144 52.5787 89.5644 52.7912 89.1561C53.0037 88.7477 53.3033 88.3909 53.6687 88.1107L50.1406 77.4927L55.7603 79.0011L58.2491 88.8529C58.6795 89.4975 58.8583 90.2774 58.7516 91.045C58.645 91.8125 58.2602 92.5142 57.6702 93.0173C57.0803 93.5203 56.3261 93.7896 55.5507 93.7742C54.7753 93.7588 54.0324 93.4598 53.4629 92.9338Z" fill="#A0616A"/>
<path d="M63.6477 35.2445C64.5801 35.7785 70.097 34.4552 71.1745 34.8317C70.5797 38.4573 73.8101 37.0968 70.3022 41.8582C66.7943 46.6197 59.7289 60.8958 58.1239 66.2315C56.5188 71.5671 58.1074 79.0865 57.8671 81.6153C57.7509 83.0804 57.7581 84.5528 57.8887 86.0167C55.9934 85.9928 54.1253 86.3858 52.2004 86.1348C50.1476 80.3313 48.7674 72.0708 47.8302 67.5054C46.893 62.94 46.8587 64.8707 47.2886 62.5879C47.7184 60.305 47.8225 61.9639 47.3709 59.78C46.9194 57.5961 48.7456 54.8522 50.4329 53.2876C51.1604 51.197 52.1006 49.2476 52.8208 47.1788C58.0989 42.5786 58.4459 39.9212 63.6477 35.2445Z" fill="#2E90FA"/>
<path d="M216.995 183.111H212.332L210.113 165.141H216.996L216.995 183.111Z" fill="#FFB6B6"/>
<path d="M218.184 187.628L203.148 187.627V187.437C203.149 185.886 203.765 184.399 204.863 183.303C205.96 182.206 207.449 181.59 209.001 181.59L211.748 179.508L216.872 181.59L218.184 181.59L218.184 187.628Z" fill="#2F2E41"/>
<path d="M195.331 183.111H190.668L188.449 165.141H195.331L195.331 183.111Z" fill="#FFB6B6"/>
<path d="M196.52 187.628L181.484 187.627V187.437C181.484 185.886 182.101 184.399 183.199 183.303C184.296 182.206 185.785 181.59 187.337 181.59L190.084 179.508L195.208 181.59L196.52 181.59L196.52 187.628Z" fill="#2F2E41"/>
<path d="M193.312 84.8667L223.643 85.6243C229.403 88.7503 229.491 95.5161 227.603 103.549C227.603 103.549 228.241 108.324 226.966 109.597C225.692 110.87 225.055 110.87 225.692 113.098C226.329 115.326 222.963 118.966 223.371 119.374C223.78 119.783 224.736 122.011 224.736 122.011L221.55 140.154C221.55 140.154 219.32 171.666 218.683 172.303C218.046 172.939 217.409 172.303 218.046 173.894C218.683 175.486 219.32 174.849 218.683 175.486C218.119 176.094 217.587 176.731 217.09 177.395H209.388C209.388 177.395 208.807 174.212 208.807 173.894C208.807 173.576 208.17 171.666 208.17 171.348C208.17 171.029 208.733 170.467 208.733 170.467C208.927 169.82 209.059 169.155 209.125 168.483C209.125 167.846 211.037 143.337 211.037 143.337L207.214 111.507L197.975 142.7C197.975 142.7 197.975 170.075 197.338 170.711C196.7 171.348 196.7 171.029 197.019 172.303C197.338 173.576 198.612 173.258 197.656 174.212C196.7 175.167 196.382 173.576 196.7 175.167L197.019 176.759L187.461 176.895C187.461 176.895 186.187 174.212 186.824 173.258C187.461 172.303 187.423 172.563 186.646 171.001C185.868 169.438 185.55 169.12 185.869 168.801C186.187 168.483 186.187 166.79 186.187 166.79L187.78 136.334C187.78 136.334 188.099 104.186 188.099 103.231C188.123 102.739 188.032 102.249 187.834 101.799V100.503L189.054 95.9098L193.312 84.8667Z" fill="#2F2E41"/>
<path d="M211.532 21.8546C216.737 21.8546 220.956 17.6391 220.956 12.439C220.956 7.23893 216.737 3.02344 211.532 3.02344C206.328 3.02344 202.108 7.23893 202.108 12.439C202.108 17.6391 206.328 21.8546 211.532 21.8546Z" fill="#FFB6B6"/>
<path d="M206.82 28.0777C204.79 29.2837 203.575 31.4994 202.878 33.7541C201.587 37.9284 200.81 42.2443 200.564 46.6063L199.828 59.6655L190.708 87.4722C198.612 94.1542 228.322 88.9908 228.322 88.9908C228.322 88.9908 229.234 88.6871 228.322 87.7759C227.41 86.8647 226.522 87.672 227.434 86.7608C228.346 85.8496 227.717 86.8647 227.413 85.9535C227.109 85.0423 227.413 85.6498 227.717 85.346C228.021 85.0423 225.364 82.3087 225.364 82.3087L227.796 66.3475L230.836 34.1523C227.188 29.5963 219.851 26.9106 219.851 26.9106L217.956 23.5015L208.477 24.2591L206.82 28.0777Z" fill="#3F3D56"/>
<path d="M205.528 6.91348C205.892 6.91632 206.255 6.9639 206.608 7.05515C207.304 7.22231 208.011 7.34073 208.723 7.40953C210.905 7.6146 212.955 8.54419 214.546 10.0498C216.137 11.5555 217.177 13.5503 217.5 15.7157C218.047 15.2387 219.293 14.3613 220.315 15.1767C220.33 15.1897 220.339 15.1964 220.375 15.1793C221.053 14.8579 222.258 10.9008 222.294 7.41674C222.313 5.56751 222.022 3.20613 220.525 2.45834L220.446 2.41894L220.425 2.3333C220.325 1.91733 219.208 1.20727 217.266 0.654611C213.737 -0.349723 208.58 -0.494918 205.618 2.38436C205.393 3.35503 204.56 3.621 203.823 3.85645C203.007 4.11707 202.303 4.34197 202.192 5.34186C202.099 6.76479 202.106 8.19245 202.212 9.61444C202.488 8.74431 203.031 7.98272 203.764 7.43691C204.284 7.08662 204.9 6.90397 205.528 6.91348Z" fill="#2F2E41"/>
<path d="M187.988 58.9388L203.382 49.0887L195.628 38.791L187.972 48.2004L164.117 49.6621C163.49 49.0425 162.696 48.6186 161.831 48.4421C160.967 48.2657 160.07 48.3444 159.249 48.6686C158.429 48.9927 157.721 49.5484 157.211 50.2678C156.701 50.9872 156.412 51.8392 156.378 52.72C156.345 53.6009 156.569 54.4724 157.022 55.2283C157.476 55.9843 158.14 56.592 158.933 56.9775C159.727 57.3629 160.615 57.5093 161.491 57.3989C162.366 57.2885 163.19 56.926 163.863 56.3557L187.988 58.9388Z" fill="#FFB6B6"/>
<path d="M217.669 35.3398C218.562 40.7421 201.69 51.0582 201.69 51.0582C201.689 49.7902 191.619 59.3628 191.165 58.3111C189.873 55.3223 188.964 48.2431 187.159 47.11C186.127 46.462 193.377 40.3747 193.377 40.3747C193.377 40.3747 197.172 36.555 202.152 31.7369C203.535 30.3487 205.246 29.3326 207.128 28.7831C209.009 28.2337 210.999 28.1687 212.912 28.5944C212.912 28.5944 216.775 29.9376 217.669 35.3398Z" fill="#3F3D56"/>
<path d="M200.516 97.3671C200.522 103.148 199.553 108.889 197.649 114.349C197.562 114.602 197.471 114.852 197.38 115.106C193.483 125.681 186.234 134.694 176.736 140.774C176.088 141.19 175.432 141.588 174.765 141.974C167.177 146.369 158.587 148.745 149.818 148.876C149.529 148.88 149.241 148.884 148.953 148.884C148.582 148.884 148.214 148.88 147.846 148.872C139.065 148.698 130.475 146.274 122.899 141.834C122.232 141.444 121.574 141.039 120.927 140.618C110.383 133.789 102.695 123.351 99.3045 111.262C95.9143 99.1722 97.055 86.2625 102.513 74.9536C102.634 74.6998 102.759 74.4498 102.888 74.196C107.187 65.6732 113.769 58.5102 121.903 53.5054C130.036 48.5006 139.401 45.8506 148.953 45.8506C158.505 45.8506 167.87 48.5006 176.003 53.5054C184.137 58.5102 190.72 65.6732 195.018 74.196C195.147 74.4498 195.272 74.6998 195.393 74.9536C198.776 81.9414 200.527 89.605 200.516 97.3671Z" fill="#F2F2F2"/>
<path d="M184.562 114.349V115.106H189.18V114.349H184.562ZM175.326 114.349V115.106H179.944V114.349H175.326ZM166.091 114.349V115.106H170.709V114.349H166.091ZM156.855 114.349V115.106H161.473V114.349H156.855ZM147.619 114.349V115.106H152.237V114.349H147.619ZM138.384 114.349V115.106H143.001V114.349H138.384ZM129.148 114.349V115.106H133.766V114.349H129.148ZM119.916 114.349V115.106H124.53V114.349H119.916ZM110.68 114.349V115.106H115.298V114.349H110.68ZM101.444 114.349V115.106H106.062V114.349H101.444ZM197.65 114.349H193.798V115.106H197.381L197.65 114.349Z" fill="#E6E6E6"/>
<path d="M193.798 109.045V109.803H198.416V109.045H193.798ZM184.562 109.045V109.803H189.18V109.045H184.562ZM175.326 109.045V109.803H179.944V109.045H175.326ZM166.091 109.045V109.803H170.709V109.045H166.091ZM156.855 109.045V109.803H161.473V109.045H156.855ZM147.619 109.045V109.803H152.237V109.045H147.619ZM138.384 109.045V109.803H143.001V109.045H138.384ZM129.148 109.045V109.803H133.766V109.045H129.148ZM119.916 109.045V109.803H124.53V109.045H119.916ZM110.68 109.045V109.803H115.298V109.045H110.68ZM101.444 109.045V109.803H106.062V109.045H101.444Z" fill="#E6E6E6"/>
<path d="M193.798 98.0605V98.8181H198.416V98.0605H193.798ZM184.562 98.0605V98.8181H189.18V98.0605H184.562ZM175.326 98.0605V98.8181H179.944V98.0605H175.326ZM166.091 98.0605V98.8181H170.709V98.0605H166.091ZM156.855 98.0605V98.8181H161.473V98.0605H156.855ZM147.619 98.0605V98.8181H152.237V98.0605H147.619ZM138.384 98.0605V98.8181H143.001V98.0605H138.384ZM129.148 98.0605V98.8181H133.766V98.0605H129.148ZM119.916 98.0605V98.8181H124.53V98.0605H119.916ZM110.68 98.0605V98.8181H115.298V98.0605H110.68ZM101.444 98.0605V98.8181H106.062V98.0605H101.444Z" fill="#E6E6E6"/>
<path d="M193.798 90.4844V91.242H198.416V90.4844H193.798ZM184.562 90.4844V91.242H189.18V90.4844H184.562ZM175.326 90.4844V91.242H179.944V90.4844H175.326ZM166.091 90.4844V91.242H170.709V90.4844H166.091ZM156.855 90.4844V91.242H161.473V90.4844H156.855ZM147.619 90.4844V91.242H152.237V90.4844H147.619ZM138.384 90.4844V91.242H143.001V90.4844H138.384ZM129.148 90.4844V91.242H133.766V90.4844H129.148ZM119.916 90.4844V91.242H124.53V90.4844H119.916ZM110.68 90.4844V91.242H115.298V90.4844H110.68ZM101.444 90.4844V91.242H106.062V90.4844H101.444Z" fill="#E6E6E6"/>
<path d="M195.018 74.1963H193.797V74.9539H195.393C195.272 74.7001 195.147 74.4501 195.018 74.1963ZM184.561 74.1963V74.9539H189.179V74.1963H184.561ZM175.326 74.1963V74.9539H179.944V74.1963H175.326ZM166.09 74.1963V74.9539H170.708V74.1963H166.09ZM156.854 74.1963V74.9539H161.472V74.1963H156.854ZM147.618 74.1963V74.9539H152.236V74.1963H147.618ZM138.383 74.1963V74.9539H143.001V74.1963H138.383ZM129.147 74.1963V74.9539H133.765V74.1963H129.147ZM119.915 74.1963V74.9539H124.529V74.1963H119.915ZM110.679 74.1963V74.9539H115.297V74.1963H110.679ZM102.888 74.1963C102.759 74.4501 102.634 74.7001 102.513 74.9539H106.061V74.1963H102.888Z" fill="#E6E6E6"/>
<path d="M176.736 76.749V140.773C176.088 141.19 175.432 141.588 174.765 141.974V76.749H176.736Z" fill="#3F3D56"/>
<path d="M149.818 97.9619V148.876C149.53 148.88 149.242 148.884 148.954 148.884C148.582 148.884 148.214 148.88 147.847 148.872V97.9619H149.818Z" fill="#3F3D56"/>
<path d="M122.899 76.749V141.834C122.232 141.444 121.575 141.039 120.928 140.618V76.749H122.899Z" fill="#3F3D56"/>
<path d="M26.2946 163.891L25.5426 153.441C20.6163 150.98 15.1633 149.758 9.65723 149.881C17.4036 155.864 16.7831 167.82 22.1479 176.003C23.8407 178.543 26.0837 180.669 28.7108 182.224C31.3378 183.78 34.2816 184.725 37.3238 184.989L43.7706 188.695C44.5081 183.825 44.1801 178.853 42.8093 174.122C41.4384 169.391 39.0573 165.013 35.8299 161.29C33.9987 159.219 31.9138 157.387 29.6243 155.837C28.2152 159.879 26.2946 163.891 26.2946 163.891Z" fill="#F2F2F2"/>
<path d="M175.493 81.8367C179.471 81.8367 182.696 78.6144 182.696 74.6395C182.696 70.6647 179.471 67.4424 175.493 67.4424C171.514 67.4424 168.289 70.6647 168.289 74.6395C168.289 78.6144 171.514 81.8367 175.493 81.8367Z" fill="#2E90FA"/>
<path d="M179.191 71.6399C179.083 71.5366 178.939 71.479 178.789 71.479C178.639 71.479 178.495 71.5366 178.387 71.6399C176.858 72.8579 175.485 74.2589 174.299 75.8115C174.008 75.2485 173.716 74.6855 173.425 74.1224C173.089 73.4725 172.107 74.0466 172.443 74.696C172.869 75.5195 173.295 76.3431 173.721 77.1666C173.772 77.2507 173.845 77.3202 173.931 77.3684C174.017 77.4166 174.113 77.4419 174.212 77.4419C174.311 77.4419 174.408 77.4166 174.494 77.3684C174.58 77.3202 174.652 77.2507 174.703 77.1666C175.967 75.3876 177.478 73.7973 179.191 72.4435C179.297 72.3365 179.356 72.1921 179.356 72.0417C179.356 71.8913 179.297 71.7469 179.191 71.6399Z" fill="white"/>
<path d="M148.954 103.049C152.932 103.049 156.157 99.8268 156.157 95.8519C156.157 91.8771 152.932 88.6548 148.954 88.6548C144.975 88.6548 141.75 91.8771 141.75 95.8519C141.75 99.8268 144.975 103.049 148.954 103.049Z" fill="#2E90FA"/>
<path d="M152.651 92.8523C152.543 92.749 152.399 92.6914 152.249 92.6914C152.099 92.6914 151.955 92.749 151.847 92.8523C150.318 94.0703 148.945 95.4713 147.759 97.0239C147.468 96.4609 147.176 95.8979 146.885 95.3348C146.549 94.6849 145.567 95.259 145.903 95.9084C146.329 96.7319 146.755 97.5555 147.181 98.379C147.232 98.4631 147.305 98.5326 147.391 98.5808C147.477 98.629 147.573 98.6543 147.672 98.6543C147.771 98.6543 147.868 98.629 147.954 98.5808C148.04 98.5326 148.112 98.4631 148.163 98.379C149.427 96.6 150.938 95.0097 152.651 93.6559C152.757 93.5489 152.816 93.4045 152.816 93.2541C152.816 93.1037 152.757 92.9593 152.651 92.8523Z" fill="white"/>
<path d="M122.035 83.3518C126.013 83.3518 129.238 80.1296 129.238 76.1547C129.238 72.1798 126.013 68.9575 122.035 68.9575C118.056 68.9575 114.831 72.1798 114.831 76.1547C114.831 80.1296 118.056 83.3518 122.035 83.3518Z" fill="#2E90FA"/>
<path d="M125.733 73.155C125.625 73.0518 125.481 72.9941 125.331 72.9941C125.181 72.9941 125.037 73.0518 124.929 73.155C123.4 74.373 122.027 75.7741 120.841 77.3267C120.55 76.7636 120.258 76.2006 119.967 75.6375C119.631 74.9876 118.649 75.5617 118.985 76.2111C119.411 77.0347 119.837 77.8582 120.263 78.6817C120.314 78.7658 120.387 78.8353 120.473 78.8835C120.559 78.9317 120.655 78.957 120.754 78.957C120.853 78.957 120.95 78.9317 121.036 78.8835C121.122 78.8353 121.194 78.7658 121.245 78.6817C122.509 76.9028 124.02 75.3125 125.733 73.9586C125.839 73.8516 125.898 73.7072 125.898 73.5568C125.898 73.4064 125.839 73.262 125.733 73.155Z" fill="white"/>
<path d="M225.341 71.0362L230.083 53.3973L217.41 51.0005L218.092 63.1077L201.441 80.2372C200.559 80.2012 199.686 80.4222 198.929 80.8733C198.171 81.3244 197.56 81.9861 197.172 82.7777C196.784 83.5694 196.635 84.4567 196.743 85.3315C196.851 86.2063 197.212 87.0309 197.78 87.7046C198.349 88.3783 199.102 88.8721 199.947 89.1257C200.792 89.3794 201.692 89.3819 202.539 89.1331C203.385 88.8842 204.141 88.3947 204.713 87.7242C205.286 87.0537 205.651 86.2312 205.764 85.357L225.341 71.0362Z" fill="#FFB6B6"/>
<path d="M231.38 33.6204C235.682 37.0133 230.16 55.9912 230.16 55.9912C229.306 55.054 228.312 68.906 227.268 68.4344C224.298 67.0939 218.855 62.4713 216.757 62.8481C215.557 63.0635 216.814 53.6856 216.814 53.6856C216.814 53.6856 217.046 48.3085 217.48 41.3961C217.567 39.4395 218.147 37.5367 219.168 35.8647C220.189 34.1927 221.616 32.8058 223.318 31.8333C223.318 31.8333 227.078 30.2276 231.38 33.6204Z" fill="#3F3D56"/>
<path d="M82.8065 73.2223L88.02 96.4676L54.6113 94.3914L63.6962 71.562L82.8065 73.2223Z" fill="#A0616A"/>
<path d="M77.2439 180.508L80.9966 180.508L82.782 166.046H77.2432L77.2439 180.508Z" fill="#A0616A"/>
<path d="M75.9726 178.658L81.9051 178.305V180.844L87.5452 184.736C87.8238 184.928 88.0336 185.204 88.144 185.524C88.2544 185.844 88.2596 186.19 88.1589 186.513C88.0581 186.836 87.8567 187.119 87.584 187.319C87.3113 187.519 86.9816 187.628 86.6431 187.628H79.5803L78.3629 185.116L77.8876 187.628H75.2246L75.9726 178.658Z" fill="#2F2E41"/>
<path d="M41.7734 178.643L45.4412 179.437L50.2547 165.682L44.8418 164.509L41.7734 178.643Z" fill="#A0616A"/>
<path d="M40.9242 176.566L46.7969 177.477L46.2581 179.959L50.9442 184.957C51.1756 185.203 51.3221 185.518 51.3621 185.854C51.4022 186.189 51.3337 186.529 51.1667 186.823C50.9997 187.118 50.743 187.351 50.434 187.489C50.1249 187.627 49.7798 187.663 49.4489 187.591L42.5467 186.095L41.89 183.383L40.8925 185.737L38.29 185.173L40.9242 176.566Z" fill="#2F2E41"/>
<path d="M88.873 115.905C86.2392 130.367 85.5808 136.611 85.5808 136.611C85.5808 136.611 87.5561 138.912 86.2392 140.228C84.9224 141.543 86.2392 144.171 86.2392 144.171L83.2781 176.053L80.8945 175.667L75.1524 174.745L73.0814 174.411L74.3983 144.502C74.3983 144.502 73.0814 141.871 73.7399 141.213C74.3983 140.555 73.0814 136.611 73.0814 136.611L71.4372 105.387L61.2368 139.57C61.2368 139.57 62.2263 140.886 61.2368 141.871C60.251 142.856 58.2794 147.788 58.2794 147.788L52.2136 168.993L51.6986 170.794L48.5352 170.202L45.0921 169.556L44.4594 169.438L43.3338 169.225L42.6092 169.089L42.3627 169.045L41.1709 168.821L41.5314 167.222L41.719 166.38L46.8504 143.609L46.9681 143.083L47.0932 142.528C47.0932 142.528 46.4348 140.886 47.4206 139.897C47.709 139.596 47.9197 139.229 48.0344 138.828C48.1491 138.427 48.1644 138.004 48.079 137.596C48.0468 137.562 48.0173 137.525 47.9908 137.486C47.8743 137.326 47.794 137.143 47.7553 136.95C47.6671 136.538 47.7443 135.961 48.4101 135.296C48.5976 135.097 48.755 134.871 48.8773 134.627C49.8778 132.734 50.3818 128.725 50.3818 128.725C50.3818 128.725 51.272 96.9673 54.1853 92.1161C54.3398 91.8625 57.4325 86.9942 57.5944 86.895C60.8829 84.9251 86.5036 87.646 86.5036 87.646C86.5036 87.646 88.0554 91.8111 88.1253 92.2447C88.5042 94.6814 91.1058 103.638 88.873 115.905Z" fill="#2F2E41"/>
<path d="M81.0882 39.411C81.0882 39.411 81.6425 36.5359 76.3155 31.2136C73.4952 30.2743 68.6088 30.8217 66.9147 31.2136C59.0808 41.5451 60.4835 39.7222 58.4443 45.4948C57.9155 46.9917 57.6511 48.4299 57.8861 49.6039C58.8262 54.3001 60.3524 78.4067 60.039 79.659C59.7257 80.9113 57.5322 82.4767 59.7256 82.4767C61.9191 82.4767 90.2062 81.982 89.5795 81.0428C88.9528 80.1035 81.0882 39.411 81.0882 39.411Z" fill="#2E90FA"/>
<path d="M114.683 77.6114C114.254 77.7776 113.793 77.8476 113.333 77.8166C112.873 77.7856 112.426 77.6543 112.023 77.432C111.62 77.2096 111.27 76.9016 110.999 76.5296C110.727 76.1577 110.541 75.7308 110.453 75.2791L99.3662 73.7057L103.221 69.3506L113.158 71.5124C113.927 71.4144 114.706 71.6019 115.346 72.0392C115.987 72.4765 116.444 73.1332 116.632 73.885C116.82 74.6368 116.725 75.4314 116.366 76.1182C116.007 76.805 115.408 77.3363 114.683 77.6114Z" fill="#A0616A"/>
<path d="M67.7793 37.5605C68.6732 36.9643 69.6885 36.6843 70.5058 35.8882C73.4899 38.0351 73.7095 34.5395 76.4139 39.7982C79.1183 45.0569 88.7646 57.7358 92.8311 61.5481C96.8976 65.3604 104.343 67.2886 106.502 68.6299C107.764 69.3864 109.086 70.0357 110.456 70.571C109.591 72.2557 109.111 74.1018 108.029 75.7119C101.914 74.9633 93.8963 72.5186 89.3878 71.3235C84.8792 70.1284 86.594 71.0191 84.7398 69.6177C82.8856 68.2164 84.4185 68.8622 82.2603 68.2934C80.1021 67.7246 78.4566 64.8689 77.8061 62.6626C76.2567 61.0807 74.9286 59.3714 73.3955 57.8056C71.624 51.0353 69.6533 44.2968 67.7793 37.5605Z" fill="#2E90FA"/>
<path d="M74.7798 27.2066C79.7911 27.2066 83.8536 23.1477 83.8536 18.1409C83.8536 13.134 79.7911 9.0752 74.7798 9.0752C69.7685 9.0752 65.7061 13.134 65.7061 18.1409C65.7061 23.1477 69.7685 27.2066 74.7798 27.2066Z" fill="#A0616A"/>
<path d="M80.8417 34.7126C80.4116 34.0989 77.196 28.0142 76.2402 25.7131C76.1419 26.2114 76.0799 26.7162 76.0546 27.2234L76.0451 27.4124L75.8572 27.4367C75.5746 27.4728 68.901 28.2821 65.4279 24.3474C63.3702 22.0167 62.9036 18.5209 64.0391 13.9548C63.8325 13.9143 63.6346 13.8381 63.4543 13.7298C63.154 13.5221 62.9026 13.2514 62.7177 12.9367C62.5328 12.622 62.4189 12.2708 62.3838 11.9075L62.1916 11.9591C56.0127 8.95507 61.3359 0.167386 66.9796 4.53644C67.4746 4.42593 67.9907 4.45556 68.4698 4.622C68.9318 4.80982 69.3344 5.11904 69.6349 5.5169C69.9353 5.91476 70.1224 6.38643 70.1764 6.8819C73.0923 5.34949 76.9516 5.59886 78.9475 6.74861C79.7832 7.23008 80.2631 7.83645 80.3483 8.5129C82.7058 8.64443 85.2415 10.9388 85.2415 14.1896V14.4159H85.0149C84.0664 14.4361 83.1413 14.7136 82.3386 15.2188C81.5359 15.724 80.8859 16.4378 80.4581 17.2838C79.8783 18.3303 79.5914 19.5135 79.6274 20.7091C79.6635 21.9046 80.0212 23.0684 80.663 24.0781C81.3615 25.1491 81.8384 26.349 82.0656 27.607C82.2929 28.865 82.2658 30.1557 81.9861 31.403L81.1347 35.1304L80.8417 34.7126Z" fill="#2F2E41"/>
<path d="M107.17 187.702C107.17 187.761 107.159 187.82 107.136 187.875C107.114 187.93 107.08 187.979 107.038 188.021C106.997 188.063 106.947 188.096 106.892 188.119C106.837 188.142 106.778 188.153 106.719 188.153H0.451172C0.331514 188.153 0.216755 188.106 0.132144 188.021C0.0475333 187.936 0 187.822 0 187.702C0 187.583 0.0475333 187.468 0.132144 187.383C0.216755 187.299 0.331514 187.251 0.451172 187.251H106.719C106.778 187.251 106.837 187.263 106.892 187.285C106.947 187.308 106.997 187.341 107.038 187.383C107.08 187.425 107.114 187.475 107.136 187.53C107.159 187.584 107.17 187.643 107.17 187.702Z" fill="#CCCCCC"/>
<path d="M252 187.702C252.001 187.761 251.989 187.82 251.966 187.875C251.944 187.93 251.91 187.979 251.869 188.021C251.827 188.063 251.777 188.096 251.722 188.119C251.667 188.142 251.608 188.153 251.549 188.153H145.281C145.162 188.153 145.047 188.106 144.962 188.021C144.878 187.936 144.83 187.822 144.83 187.702C144.83 187.583 144.878 187.468 144.962 187.383C145.047 187.299 145.162 187.251 145.281 187.251H251.549C251.608 187.251 251.667 187.263 251.722 187.285C251.777 187.308 251.827 187.341 251.869 187.383C251.91 187.425 251.944 187.475 251.966 187.53C251.989 187.584 252.001 187.643 252 187.702Z" fill="#CCCCCC"/>
<path d="M121.811 155.216C124.029 155.216 125.826 153.42 125.826 151.204C125.826 148.988 124.029 147.192 121.811 147.192C119.594 147.192 117.796 148.988 117.796 151.204C117.796 153.42 119.594 155.216 121.811 155.216Z" fill="#E6E6E6"/>
<path d="M148.729 159.383C150.947 159.383 152.744 157.587 152.744 155.371C152.744 153.155 150.947 151.359 148.729 151.359C146.512 151.359 144.714 153.155 144.714 155.371C144.714 157.587 146.512 159.383 148.729 159.383Z" fill="#E6E6E6"/>
<path d="M175.648 154.458C177.866 154.458 179.663 152.662 179.663 150.447C179.663 148.231 177.866 146.435 175.648 146.435C173.431 146.435 171.633 148.231 171.633 150.447C171.633 152.662 173.431 154.458 175.648 154.458Z" fill="#E6E6E6"/>
</g>
<defs>
<clipPath id="clip0_1254_22029">
<rect width="252" height="189" fill="white"/>
</clipPath>
</defs>
</svg>
