<svg width="369" height="202" viewBox="0 0 369 202" fill="none" xmlns="http://www.w3.org/2000/svg">
<g clip-path="url(#clip0_1254_22084)">
<path d="M14.6495 193.512C24.722 200.78 37.7752 201.145 50.3925 200.252C52.1544 200.128 53.9038 199.982 55.6369 199.824C55.6474 199.821 55.6612 199.822 55.6718 199.82C55.7551 199.812 55.8385 199.804 55.9182 199.799C56.276 199.765 56.6339 199.732 56.9882 199.698L56.9045 199.858L56.6418 200.355C56.7362 200.188 56.8306 200.026 56.925 199.86C56.9528 199.81 56.9839 199.76 57.0115 199.71C60.2801 194.013 63.5219 188.106 64.3489 181.6C65.2036 174.847 62.8014 167.2 56.8681 163.881C56.09 163.447 55.266 163.102 54.4113 162.851C54.0564 162.743 53.6968 162.655 53.3331 162.578C51.1078 162.083 48.7911 162.19 46.6212 162.889C44.4513 163.589 42.5064 164.854 40.9867 166.556C39.4669 168.258 38.427 170.334 37.974 172.572C37.5209 174.81 37.6711 177.128 38.409 179.288C33.3786 174.121 34.317 165.739 36.0522 158.734C37.7908 151.729 39.8955 143.934 36.3594 137.642C34.3937 134.14 30.937 131.967 27.0576 131.092C26.9386 131.066 26.8198 131.04 26.7006 131.018C22.0785 130.08 17.2733 130.924 13.2449 133.38C5.82727 138.062 2.0175 146.939 0.781002 155.636C-1.21122 169.629 3.1976 185.247 14.6495 193.512Z" fill="#F1F1F1"/>
<path d="M17.9013 171.079C18.1938 174.166 18.934 177.194 20.0987 180.066C21.172 182.608 22.6188 184.976 24.391 187.089C28.0112 191.451 32.7981 194.731 37.9967 196.916C41.9718 198.547 46.1367 199.668 50.3924 200.252C52.1542 200.128 53.9036 199.982 55.6368 199.824C55.6472 199.821 55.661 199.822 55.6716 199.82C55.7549 199.812 55.8384 199.804 55.9181 199.799C56.2758 199.766 56.6337 199.732 56.9881 199.698L56.9044 199.858L56.6416 200.355C56.736 200.189 56.8304 200.026 56.9248 199.86C56.9526 199.81 56.9837 199.76 57.0113 199.71C53.8208 196.526 51.4388 192.622 50.0647 188.326C48.6905 184.03 48.3645 179.466 49.1137 175.018C49.8978 170.601 51.7129 166.432 54.4111 162.851C54.0563 162.743 53.6966 162.655 53.3329 162.578C52.3075 163.982 51.408 165.474 50.6449 167.037C47.9071 172.611 47.0336 178.92 48.1538 185.03C49.1953 190.559 51.7899 195.676 55.633 199.779C55.2965 199.755 54.9567 199.728 54.6242 199.697C48.326 199.163 42.0406 197.807 36.3281 195.029C31.4452 192.711 27.2059 189.227 23.9838 184.883C20.5241 180.103 18.9995 174.354 18.7377 168.511C18.46 162.256 19.2703 155.89 20.6955 149.807C22.1508 143.57 24.3624 137.535 27.2812 131.837C27.3465 131.708 27.3597 131.558 27.318 131.42C27.2764 131.281 27.1831 131.163 27.0575 131.092C26.9528 131.021 26.8244 130.995 26.7004 131.018C26.6397 131.034 26.5834 131.064 26.5357 131.105C26.488 131.146 26.4501 131.197 26.4249 131.255C26.0649 131.958 25.7115 132.663 25.3716 133.375C22.5404 139.308 20.4561 145.57 19.1664 152.018C17.9144 158.238 17.2462 164.745 17.9013 171.079Z" fill="white"/>
<path d="M145.622 202H0.381209C0.280106 202 0.183144 201.96 0.111653 201.888C0.0401627 201.817 0 201.719 0 201.618C0 201.517 0.0401627 201.42 0.111653 201.348C0.183144 201.277 0.280106 201.236 0.381209 201.236H145.622C145.723 201.236 145.82 201.277 145.891 201.348C145.963 201.42 146.003 201.517 146.003 201.618C146.003 201.719 145.963 201.817 145.891 201.888C145.82 201.96 145.723 202 145.622 202Z" fill="#CBCBCB"/>
<path d="M102.023 99.46L95.4558 67.2257L92.571 43.4175L86.1797 47.5591L87.0626 73.7958L97.2637 100.98C96.9358 101.605 96.8011 102.314 96.8765 103.016C96.952 103.719 97.2343 104.383 97.6876 104.924C98.1408 105.465 98.7445 105.86 99.4219 106.056C100.099 106.253 100.82 106.243 101.492 106.029C102.164 105.814 102.757 105.404 103.196 104.851C103.634 104.298 103.899 103.627 103.956 102.923C104.013 102.219 103.86 101.514 103.516 100.897C103.171 100.28 102.652 99.7801 102.023 99.46Z" fill="#FFB7B7"/>
<path d="M40.6004 101.953L42.4183 69.1043L41.8162 45.1289L50.2656 48.2955L51.6761 74.3819L45.5299 102.763C45.9451 103.334 46.1813 104.016 46.2086 104.722C46.2359 105.427 46.053 106.126 45.6831 106.727C45.3133 107.329 44.7732 107.806 44.1316 108.1C43.49 108.393 42.7758 108.489 42.0798 108.374C41.3838 108.26 40.7375 107.941 40.2231 107.457C39.7086 106.974 39.3492 106.349 39.1907 105.66C39.0321 104.972 39.0814 104.252 39.3325 103.592C39.5835 102.931 40.0249 102.361 40.6004 101.953Z" fill="#FFB7B7"/>
<path d="M58.2967 197.455L62.6139 197.454L64.6678 180.773L58.2959 180.774L58.2967 197.455Z" fill="#FFB7B7"/>
<path d="M57.1953 196.042L65.6978 196.042C67.1349 196.042 68.5134 196.614 69.5295 197.632C70.5457 198.65 71.1166 200.03 71.1167 201.47V201.646L57.1956 201.646L57.1953 196.042Z" fill="#2F2E41"/>
<path d="M74.6494 195.541L78.9159 196.202L83.4919 180.032L77.1951 179.056L74.6494 195.541Z" fill="#FFB7B7"/>
<path d="M73.7761 193.977L82.1787 195.279C83.5988 195.499 84.8738 196.275 85.7226 197.436C86.5715 198.598 86.9249 200.05 86.7053 201.472L86.6784 201.647L72.9209 199.515L73.7761 193.977Z" fill="#2F2E41"/>
<path d="M57.0285 192.474L57.0061 192.353L41.3764 107.706C40.1356 100.91 41.1253 93.8952 44.1972 87.7102L53.6572 68.7583L81.885 72.5889L85.2164 96.7177L97.0881 142.747L97.0764 142.784L81.8661 191.181L71.8975 191.838L80.7279 148.637L64.5591 111.851L65.6996 191.816L57.0285 192.474Z" fill="#2F2E41"/>
<path d="M82.542 75.6767L82.3557 75.3843C82.3223 75.3316 78.8935 70.157 69.5629 73.612C60.0378 77.1397 52.6574 70.3262 52.5839 70.257L52.5473 70.2225L50.3902 50.9637L47.8438 35.3292L55.9498 33.9047L59.935 31.5097L75.7823 31.2271L79.9525 34.5125L86.7992 35.2599L87.426 49.5057L87.4231 49.5212L82.542 75.6767Z" fill="#2E90FA"/>
<path d="M84.8135 50.8834V38.6851L86.7388 35.1655L86.8171 35.1631C88.3328 35.2197 89.7653 35.8717 90.8048 36.978C92.7413 38.9489 93.6186 42.2327 93.4123 46.7379L93.4085 46.8203L84.8135 50.8834Z" fill="#2E90FA"/>
<path d="M51.2548 49.5577L41.4417 48.378L41.4341 48.2648C41.0993 43.3631 41.9534 39.7244 43.9727 37.4503C45.8054 35.3863 47.9053 35.2613 47.9938 35.2571L48.0505 35.2544L50.7069 37.6734L51.2548 49.5577Z" fill="#2E90FA"/>
<path d="M79.6617 26.3119H53.8394C53.3082 26.3113 52.799 26.0996 52.4234 25.7234C52.0478 25.3472 51.8365 24.8371 51.8359 24.305V14.9398C51.8359 10.9775 53.4073 7.17751 56.2043 4.37576C59.0014 1.57401 62.7949 0 66.7505 0C70.7061 0 74.4997 1.57401 77.2968 4.37576C80.0938 7.17751 81.6652 10.9775 81.6652 14.9398V24.305C81.6646 24.8371 81.4533 25.3472 81.0777 25.7234C80.7021 26.0996 80.1929 26.3113 79.6617 26.3119Z" fill="#2F2E41"/>
<path d="M76.9445 20.5202C79.8412 15.2122 77.8937 8.55694 72.5946 5.65531C67.2955 2.75369 60.6515 4.70446 57.7548 10.0125C54.858 15.3205 56.8055 21.9758 62.1046 24.8774C67.4037 27.779 74.0477 25.8283 76.9445 20.5202Z" fill="#FFB7B7"/>
<path d="M77.7432 15.6086H63.3065C63.0353 15.6083 62.7735 15.5089 62.5702 15.329C62.3669 15.1492 62.236 14.9013 62.2021 14.6318L62.0151 13.134C61.9972 12.99 61.933 12.8558 61.8322 12.7515C61.7314 12.6473 61.5995 12.5787 61.4563 12.5561C61.3132 12.5336 61.1667 12.5582 61.0388 12.6264C60.9109 12.6946 60.8086 12.8026 60.7473 12.9341L59.8009 14.9654C59.7109 15.1573 59.5683 15.3196 59.3898 15.4335C59.2112 15.5474 59.004 15.6081 58.7924 15.6086H56.5994C56.4443 15.6087 56.2909 15.5762 56.149 15.5134C56.0072 15.4505 55.88 15.3586 55.7756 15.2437C55.6713 15.1287 55.5921 14.9931 55.5432 14.8456C55.4942 14.6982 55.4766 14.5421 55.4914 14.3875L56.3561 5.34058C56.3746 5.14702 56.4429 4.9616 56.5544 4.80244C56.6659 4.64327 56.8168 4.51581 56.9922 4.43253C63.6037 1.34084 70.3083 1.34476 76.9199 4.44429C77.0876 4.52325 77.233 4.64286 77.343 4.79228C77.4529 4.9417 77.524 5.11623 77.5496 5.30007L78.8449 14.3352C78.8677 14.4934 78.8562 14.6546 78.8112 14.808C78.7663 14.9613 78.689 15.1032 78.5845 15.224C78.48 15.3448 78.3508 15.4416 78.2056 15.508C78.0605 15.5744 77.9028 15.6087 77.7432 15.6086Z" fill="#2F2E41"/>
<path d="M102.057 101.519L101.518 100.979L124.947 77.509H170.353L193.261 54.0881H238.08L260.691 31.2617H365.95V32.0254H261.009L238.397 54.8518H193.582L170.673 78.2727H125.263L102.057 101.519Z" fill="#3F3D56"/>
<path d="M194.025 68.7337C201.814 68.7337 208.129 62.4081 208.129 54.6051C208.129 46.8021 201.814 40.4766 194.025 40.4766C186.235 40.4766 179.92 46.8021 179.92 54.6051C179.92 62.4081 186.235 68.7337 194.025 68.7337Z" fill="white"/>
<path d="M261.118 35.5121C263.223 35.5121 264.93 33.8024 264.93 31.6935C264.93 29.5846 263.223 27.875 261.118 27.875C259.012 27.875 257.306 29.5846 257.306 31.6935C257.306 33.8024 259.012 35.5121 261.118 35.5121Z" fill="#CBCBCB"/>
<path d="M365.188 35.5121C367.293 35.5121 369 33.8024 369 31.6935C369 29.5846 367.293 27.875 365.188 27.875C363.083 27.875 361.376 29.5846 361.376 31.6935C361.376 33.8024 363.083 35.5121 365.188 35.5121Z" fill="#CBCBCB"/>
<path d="M313.343 35.5121C315.449 35.5121 317.155 33.8024 317.155 31.6935C317.155 29.5846 315.449 27.875 313.343 27.875C311.238 27.875 309.531 29.5846 309.531 31.6935C309.531 33.8024 311.238 35.5121 313.343 35.5121Z" fill="#CBCBCB"/>
<path d="M194.025 69.1155C191.16 69.1155 188.359 68.2645 185.977 66.6701C183.595 65.0757 181.738 62.8094 180.642 60.158C179.545 57.5066 179.258 54.589 179.817 51.7743C180.376 48.9596 181.756 46.374 183.782 44.3447C185.808 42.3154 188.389 40.9334 191.199 40.3735C194.009 39.8137 196.922 40.101 199.569 41.1993C202.216 42.2975 204.478 44.1574 206.07 46.5436C207.661 48.9298 208.511 51.7352 208.511 54.6051C208.507 58.4522 206.979 62.1404 204.263 64.8607C201.548 67.581 197.866 69.1112 194.025 69.1155ZM194.025 40.8584C191.311 40.8584 188.657 41.6647 186.401 43.1752C184.144 44.6857 182.385 46.8326 181.346 49.3445C180.307 51.8564 180.036 54.6204 180.565 57.287C181.095 59.9536 182.402 62.403 184.321 64.3255C186.24 66.248 188.686 67.5573 191.348 68.0877C194.01 68.6181 196.769 68.3459 199.277 67.3054C201.784 66.265 203.928 64.503 205.436 62.2424C206.944 59.9817 207.749 57.324 207.749 54.6051C207.744 50.9605 206.297 47.4664 203.724 44.8893C201.152 42.3122 197.663 40.8625 194.025 40.8584Z" fill="#3F3D56"/>
<path d="M194.025 64.6998C199.591 64.6998 204.103 60.1802 204.103 54.605C204.103 49.0298 199.591 44.5103 194.025 44.5103C188.459 44.5103 183.947 49.0298 183.947 54.605C183.947 60.1802 188.459 64.6998 194.025 64.6998Z" fill="#2E90FA"/>
<path d="M193.065 58.8662L190.049 54.9812L191.803 53.6146L193.231 55.454L198.056 50.3521L199.669 51.8833L193.065 58.8662Z" fill="white"/>
<path d="M124.645 92.0266C132.435 92.0266 138.75 85.7011 138.75 77.8981C138.75 70.0951 132.435 63.7695 124.645 63.7695C116.855 63.7695 110.54 70.0951 110.54 77.8981C110.54 85.7011 116.855 92.0266 124.645 92.0266Z" fill="white"/>
<path d="M124.645 92.4085C121.78 92.4085 118.979 91.5575 116.597 89.9631C114.215 88.3686 112.358 86.1024 111.262 83.451C110.165 80.7996 109.879 77.882 110.438 75.0673C110.996 72.2525 112.376 69.667 114.402 67.6377C116.428 65.6084 119.009 64.2264 121.819 63.6665C124.629 63.1066 127.542 63.394 130.189 64.4922C132.836 65.5905 135.098 67.4503 136.69 69.8366C138.282 72.2228 139.131 75.0282 139.131 77.8981C139.127 81.7452 137.599 85.4334 134.883 88.1537C132.168 90.874 128.486 92.4041 124.645 92.4085ZM124.645 64.1514C121.931 64.1514 119.278 64.9576 117.021 66.4681C114.764 67.9787 113.005 70.1256 111.966 72.6375C110.928 75.1493 110.656 77.9133 111.185 80.5799C111.715 83.2465 113.022 85.696 114.941 87.6185C116.86 89.541 119.306 90.8502 121.968 91.3806C124.63 91.9111 127.389 91.6388 129.897 90.5984C132.405 89.5579 134.548 87.796 136.056 85.5353C137.564 83.2747 138.369 80.6169 138.369 77.8981C138.365 74.2535 136.917 70.7594 134.345 68.1823C131.772 65.6052 128.284 64.1555 124.645 64.1514Z" fill="#3F3D56"/>
<path d="M124.645 87.9928C130.211 87.9928 134.723 83.4732 134.723 77.898C134.723 72.3228 130.211 67.8032 124.645 67.8032C119.079 67.8032 114.567 72.3228 114.567 77.898C114.567 83.4732 119.079 87.9928 124.645 87.9928Z" fill="#2E90FA"/>
<path d="M123.684 82.1592L120.668 78.2742L122.422 76.9076L123.85 78.7469L128.675 73.645L130.288 75.1762L123.684 82.1592Z" fill="white"/>
</g>
<defs>
<clipPath id="clip0_1254_22084">
<rect width="369" height="202" fill="white"/>
</clipPath>
</defs>
</svg>
