<svg width="274" height="232" viewBox="0 0 274 232" fill="none" xmlns="http://www.w3.org/2000/svg">
<g clip-path="url(#clip0_1254_24766)">
<path d="M264.138 189.838H9.86229C4.42432 189.838 0 185.415 0 179.979V149.385H274V179.979C274 185.415 269.576 189.838 264.138 189.838Z" fill="#E6E6E6"/>
<path d="M169.909 184.721H105.065V231.023H169.909V184.721Z" fill="#E6E6E6"/>
<path d="M173.809 225.174H101.165V231.023H173.809V225.174Z" fill="#E6E6E6"/>
<path d="M273.756 162.301H0V6.76586C0 3.03524 3.0362 0 6.76801 0H266.988C270.72 0 273.756 3.03524 273.756 6.76586V162.301Z" fill="#3F3D56"/>
<path d="M267.174 7.06641H6.33789V153.771H267.174V7.06641Z" fill="white"/>
<path d="M56.8518 94.5062C58.8482 92.8572 61.3176 92.5502 62.3672 93.8205C63.4168 95.0908 62.6492 97.4569 60.6518 99.1063C59.863 99.7761 58.9252 100.247 57.9169 100.481L49.3699 107.361L46.2256 103.283L54.9853 96.9327C55.4047 95.9864 56.0447 95.1544 56.8518 94.5062Z" fill="#FFB6B6"/>
<path d="M7.45056 110.031C7.44623 109.727 7.44908 107.073 9.41468 105.395C11.6726 103.468 14.8587 104.248 15.9761 104.522C18.5576 105.154 18.7693 106.261 21.1935 107.398C25.7289 109.526 20.0462 108.437 22.7449 107.754C23.679 107.518 37.1181 106.587 40.4633 104.528C46.9694 100.525 51.4024 98.0977 51.4024 98.0977L54.3003 103.892C54.3003 103.892 50.1099 109.717 44.2122 114.032C38.1625 118.458 35.1377 120.671 30.5408 121.526C30.1449 121.6 20.4089 123.262 12.5674 117.405C10.7788 116.069 7.50163 113.622 7.45056 110.031Z" fill="#1294F2"/>
<path d="M16.441 95.2955C22.0164 95.2955 26.5362 90.7771 26.5362 85.2034C26.5362 79.6297 22.0164 75.1113 16.441 75.1113C10.8655 75.1113 6.3457 79.6297 6.3457 85.2034C6.3457 90.7771 10.8655 95.2955 16.441 95.2955Z" fill="#FFB6B6"/>
<path d="M95.5029 153.006L85.1061 142.367L79.7393 147.964L87.4852 158.165L95.1684 159.043L95.5029 153.006Z" fill="#FFB6B6"/>
<path d="M36.1374 133.055C36.7455 133.106 38.678 133.493 40.5251 132.477C41.7856 131.783 42.4321 130.753 42.6505 130.425C45.3594 126.357 55.7568 120.015 65.0882 119.625C67.2014 119.536 68.5923 119.781 69.8566 120.44C71.6492 121.374 72.3649 122.712 74.6398 125.847C75.8841 127.562 77.261 129.177 78.5204 130.881C85.8933 140.855 88.6883 141.638 88.4027 144.836C88.0857 148.384 84.2581 151.75 81.7141 151.361C80.6723 151.202 80.2688 150.478 78.8769 149.012C74.7956 144.713 73.107 145.507 70.2013 142.215C66.8088 138.371 67.2529 135.183 65.483 135.06C63.8416 134.946 63.1441 137.665 59.64 141.277C58.0366 142.93 56.8948 143.688 53.4162 146.101C39.87 155.496 39.6538 156.156 36.92 156.905C35.7239 157.233 27.2347 159.56 24.2106 155.857C19.4782 150.063 30.6581 132.6 36.1374 133.055Z" fill="#2F2E41"/>
<path d="M92.3249 155.409C93.0895 155.066 93.9836 154.664 94.2713 153.741C94.4659 153.117 94.3538 152.347 93.9515 151.815C93.4873 151.201 92.8002 151.12 92.828 151.011C92.8703 150.846 94.4951 150.911 96.2786 151.541C96.6152 151.66 98.1399 152.217 100.079 153.73C101.633 154.943 101.424 155.186 102.399 155.886C105.39 158.032 108.195 156.34 109.814 158.354C110.439 159.13 110.705 160.233 110.442 161.125C109.914 162.917 107.347 163.533 105.944 163.851C102.565 164.618 100.007 163.992 97.3364 163.542C88.2538 162.012 83.1506 163.405 82.4676 161.302C82.3383 160.904 82.5483 160.938 83.2486 158.016C83.9398 155.133 83.9172 154.341 84.5058 154.11C85.3919 153.762 85.9869 155.343 88.2191 155.884C90.1972 156.364 91.8294 155.631 92.3249 155.409Z" fill="#2F2E41"/>
<path d="M77.0188 187.809L74.3921 173.17L66.8076 174.788L67.4871 187.577L73.3511 192.617L77.0188 187.809Z" fill="#FFB6B6"/>
<path d="M39.103 137.975C39.5778 138.358 40.9594 139.763 43.0584 139.96C44.4909 140.094 45.6049 139.604 45.9697 139.455C50.4958 137.61 62.6618 138.199 70.6023 143.114C72.4005 144.227 73.4139 145.211 74.09 146.465C75.0486 148.245 74.8891 149.754 75.0107 153.625C75.0772 155.742 75.3091 157.852 75.3941 159.968C75.8921 172.36 77.765 174.577 75.7324 177.063C73.4772 179.821 68.4193 180.457 66.5326 178.708C65.7599 177.991 65.8328 177.165 65.5046 175.171C64.5421 169.323 62.6989 169.032 62.144 164.677C61.4962 159.591 63.654 157.203 62.2586 156.108C60.9646 155.092 58.8601 156.95 53.9316 157.972C51.6764 158.44 50.3057 158.426 46.0723 158.47C29.5863 158.639 29.0366 159.064 26.3536 158.149C25.1798 157.749 16.8485 154.909 16.426 150.147C15.7648 142.696 34.8247 134.523 39.103 137.975Z" fill="#2F2E41"/>
<path d="M73.0386 188.013C73.8641 188.158 74.8293 188.328 75.5857 187.726C76.0976 187.319 76.4374 186.618 76.4034 185.952C76.3641 185.184 75.841 184.731 75.925 184.657C76.053 184.544 77.361 185.509 78.4828 187.032C78.6945 187.319 79.6433 188.636 80.3979 190.977C81.0025 192.853 80.6929 192.937 81.1064 194.063C82.3757 197.518 85.6474 197.693 85.8559 200.267C85.9364 201.261 85.5372 202.323 84.8187 202.914C83.3758 204.099 80.9053 203.168 79.5655 202.644C76.3389 201.381 74.574 199.428 72.6168 197.556C65.9608 191.192 60.9555 189.48 61.5719 187.356C61.6885 186.954 61.8433 187.1 64.0638 185.076C66.2555 183.078 66.6815 182.41 67.2983 182.549C68.2268 182.759 67.831 184.401 69.3741 186.102C70.7415 187.609 72.5037 187.919 73.0386 188.013Z" fill="#2F2E41"/>
<path d="M17.8164 87.1326C18.2094 85.7272 17.7158 85.215 18.2189 84.5841C18.2189 84.5841 18.4214 84.3303 20.2315 83.6452C19.6974 80.5476 20.0973 80.0238 20.0973 80.0238C20.5582 79.4201 21.4814 79.2742 22.1099 79.3531C23.4391 79.5202 23.6744 80.7214 24.5249 80.6944C25.6999 80.6572 27.1091 78.306 26.6717 76.2682C26.3149 74.6059 24.7764 73.3714 24.3908 73.5856C24.0084 73.798 22.6319 72.8615 22.1099 73.0491C21.7534 73.1773 20.0753 73.0068 19.6948 73.1832C19.2793 73.376 18.0893 74.5759 17.9755 74.4247C17.1849 73.3741 17.2017 73.0073 16.743 72.7809C15.9303 72.3796 15.0466 73.1212 13.5229 73.8539C10.388 75.3614 9.46999 74.4621 8.02194 75.7317C7.29045 76.373 6.8982 77.5987 6.14355 80.0238C5.08817 83.4153 4.56049 85.1111 5.07018 86.7302C5.58998 88.3814 6.35544 88.022 7.48526 90.3517C8.74292 92.9449 8.30945 94.4523 9.49782 95.0462C10.4163 95.5052 11.8923 95.213 12.4496 94.3755C13.4037 92.9416 10.9376 91.0019 11.7787 88.7421C12.2951 87.355 13.8879 86.3032 14.8647 86.5961C15.9691 86.9272 16.0504 88.9069 16.743 88.8763C17.3361 88.85 17.7479 87.3775 17.8164 87.1326Z" fill="#2F2E41"/>
<path d="M10.1696 96.7897C12.2354 94.4741 20.6501 96.8708 21.4399 100.545C21.7648 102.057 20.5655 102.695 20.9032 104.435C21.3972 106.98 24.194 106.807 26.2701 109.398C29.2174 113.076 26.181 116.672 29.4902 122.811C30.1973 124.122 30.7932 125.228 32.0394 126.298C34.899 128.753 37.5602 127.911 39.0163 130.188C40.1051 131.89 39.6578 133.988 39.553 134.48C39.1232 136.495 37.9586 136.986 37.1379 138.638C35.7725 141.385 37.3185 143.403 37.4062 146.685C37.5161 150.793 35.3326 156.486 30.966 158.355C26.0604 160.453 20.1437 156.977 17.2806 153.526C15.5722 151.467 15.0763 149.567 14.3289 147.222C10.9885 136.742 9.1014 137.69 6.54695 129.383C3.62674 119.886 3.05267 108.76 6.54695 105.24C7.0101 104.773 8.2847 103.695 9.09619 101.752C10.1882 99.1391 9.2448 97.8262 10.1696 96.7897Z" fill="#1294F2"/>
<path d="M40.6939 150.693C42.2956 152.728 42.5439 155.203 41.2486 156.222C39.9533 157.24 37.6053 156.417 36.0034 154.382C35.3523 153.577 34.9033 152.629 34.6941 151.616L28.0166 142.91L31.467 140.279L38.3118 148.77C39.2481 149.212 40.0649 149.871 40.6939 150.693Z" fill="#FFB6B6"/>
<path d="M16.239 105.614C16.5361 105.548 19.1358 105.009 21.1797 106.59C23.5276 108.407 23.4139 111.684 23.374 112.834C23.2818 115.489 22.241 115.922 21.6218 118.526C20.4633 123.399 22.6695 127.928 23.8884 130.43C24.3103 131.296 25.6658 133.946 28.364 136.799C33.6116 142.35 38.2939 145.27 38.2939 145.27L33.2638 149.74C33.2638 149.74 25.2515 147.299 19.8224 142.407C14.2534 137.39 5.6892 119.638 3.91382 115.314C3.76093 114.941 5.92666 120.996 10.0618 112.126C11.005 110.103 12.7332 106.397 16.239 105.614Z" fill="#1294F2"/>
<path d="M144.978 101.45L138.973 98.6062C141.436 102.043 143.559 107.41 144.695 111.681C146.619 107.703 149.72 102.835 152.791 99.9271L146.443 101.559C150.354 82.3965 165.066 68.6394 181.912 68.6394L182.151 67.9473C164.554 67.9473 148.972 81.5137 144.978 101.45Z" fill="#3F3D56"/>
<path d="M172.621 130.649H134.674C133.064 130.649 131.755 129.34 131.755 127.731C131.755 126.122 133.064 124.812 134.674 124.812H172.621C174.23 124.812 175.54 126.122 175.54 127.731C175.54 129.34 174.23 130.649 172.621 130.649Z" fill="#1294F2"/>
<path d="M223.114 130.649H185.167C183.558 130.649 182.248 129.34 182.248 127.731C182.248 126.122 183.558 124.812 185.167 124.812H223.114C224.723 124.812 226.033 126.122 226.033 127.731C226.033 129.34 224.723 130.649 223.114 130.649Z" fill="#E6E6E6"/>
<path d="M200.65 51.2644H163.764C162.834 51.2644 162.077 50.5079 162.077 49.5783C162.077 48.6487 162.834 47.8926 163.764 47.8926H200.65C201.58 47.8926 202.336 48.6487 202.336 49.5783C202.336 50.5079 201.58 51.2644 200.65 51.2644Z" fill="#3F3D56"/>
<path d="M220.443 69.2526H143.97C143.04 69.2526 142.283 68.4962 142.283 67.5666C142.283 66.6369 143.04 65.8809 143.97 65.8809H220.443C221.373 65.8809 222.129 66.6369 222.129 67.5666C222.129 68.4962 221.373 69.2526 220.443 69.2526Z" fill="#3F3D56"/>
<path d="M16.5811 231.454C16.5811 231.757 16.8244 232 17.1273 232H256.874C257.177 232 257.42 231.757 257.42 231.454C257.42 231.151 257.177 230.908 256.874 230.908H17.1273C16.8244 230.908 16.5811 231.151 16.5811 231.454Z" fill="#3F3D56"/>
<path d="M75.4506 102.008C75.3856 102.008 75.3208 102.006 75.2554 102.002C71.4139 101.755 58.2691 99.896 50.4218 86.3321C49.7751 85.2153 49.9025 83.7954 50.7386 82.7994L65.2715 65.4895C65.8658 64.7816 66.7839 64.3738 67.7137 64.385C68.3563 64.4003 69.8779 64.5626 70.1734 65.7351C71.9192 72.6627 79.2911 80.8081 88.1569 81.8878C89.0556 81.9969 89.777 82.7984 90.0866 84.0315C90.3282 84.9915 90.105 85.981 89.4739 86.7464L77.8318 100.879C77.2404 101.597 76.3726 102.008 75.4506 102.008ZM67.6579 65.0813C66.9477 65.0813 66.257 65.3994 65.8054 65.9372L51.2727 83.2471C50.6241 84.0196 50.5247 85.119 51.0249 85.9831C58.6992 99.248 71.5459 101.066 75.3003 101.307C76.067 101.358 76.8032 101.031 77.2939 100.436L88.9361 86.3035C89.4249 85.7106 89.5978 84.9445 89.4108 84.2013C89.2281 83.4736 88.7804 82.6654 88.0725 82.579C78.9138 81.4639 71.2997 73.0559 69.4976 65.9052C69.3516 65.3262 68.4728 65.1 67.6992 65.0817C67.6854 65.0813 67.6717 65.0813 67.6579 65.0813Z" fill="#3F3D56"/>
<path d="M59.2288 86.9011L69.7063 76.2213C70.4226 75.4913 69.3005 74.3678 68.5834 75.0987L58.1058 85.7784C57.3896 86.5085 58.5116 87.632 59.2288 86.9011Z" fill="#E6E6E6"/>
<path d="M65.5518 89.9106C68.4435 87.3196 70.9563 84.3196 73.014 81.0277C73.5571 80.1588 72.1837 79.3609 71.6427 80.2264C69.6534 83.409 67.2241 86.2834 64.4288 88.788C63.6662 89.4714 64.7924 90.5911 65.5518 89.9106Z" fill="#E6E6E6"/>
<path d="M71.252 93.514C73.8848 90.5986 76.1259 87.3447 77.8902 83.8348C78.348 82.9242 76.9784 82.1194 76.5189 83.0334C74.8142 86.4247 72.6733 89.5739 70.129 92.3914C69.4457 93.1482 70.5654 94.2744 71.252 93.514Z" fill="#E6E6E6"/>
<path d="M66.7627 74.2866C72.5968 74.2866 77.3262 69.6583 77.3262 63.949C77.3262 58.2396 72.5968 53.6113 66.7627 53.6113C60.9287 53.6113 56.1992 58.2396 56.1992 63.949C56.1992 69.6583 60.9287 74.2866 66.7627 74.2866Z" fill="#1294F2"/>
<path d="M72.2592 68.8533C70.6346 64.8602 69.01 60.8672 67.3854 56.8741C67.161 56.3226 66.4581 56.303 66.2391 56.8741C64.6339 61.0605 63.5849 65.4289 63.0806 69.8828C62.9947 70.6415 64.1841 70.6354 64.2693 69.8828C64.4667 68.1399 64.7596 66.41 65.1358 64.6986C66.4745 64.7688 67.8242 64.6186 69.116 64.2611C69.7817 65.8972 70.4473 67.5332 71.113 69.1692C71.3974 69.8683 72.5478 69.5626 72.2592 68.8533ZM65.4053 63.5238C65.8057 61.8854 66.2857 60.2665 66.8427 58.6735L68.6646 63.1514C67.5974 63.4314 66.5061 63.556 65.4053 63.5238Z" fill="white"/>
</g>
<defs>
<clipPath id="clip0_1254_24766">
<rect width="274" height="232" fill="white"/>
</clipPath>
</defs>
</svg>
