<svg width="36" height="36" viewBox="0 0 36 36" fill="none" xmlns="http://www.w3.org/2000/svg">
<g id="Logo_icon">
<path id="Intersect" d="M12.8566 25.7142C19.9574 25.7142 25.7137 19.9579 25.7137 12.8571C25.7137 12.0523 25.6398 11.2648 25.4983 10.501C24.7345 10.3596 23.947 10.2856 23.1423 10.2856C16.0415 10.2856 10.2852 16.042 10.2852 23.1428C10.2852 23.9475 10.3591 24.735 10.5005 25.4988C11.2643 25.6403 12.0518 25.7142 12.8566 25.7142Z" fill="#175CD3"/>
<path id="Circle" fill-rule="evenodd" clip-rule="evenodd" d="M10.5011 25.4989C4.52551 24.3922 0 19.1532 0 12.8571C0 5.75634 5.75634 0 12.8571 0C19.1532 0 24.3922 4.52551 25.4989 10.5011C24.7351 10.3597 23.9476 10.2857 23.1429 10.2857C16.0421 10.2857 10.2857 16.0421 10.2857 23.1429C10.2857 23.9476 10.3597 24.7351 10.5011 25.4989Z" fill="#1570EF"/>
<path id="Circle_2" fill-rule="evenodd" clip-rule="evenodd" d="M12.858 25.7142C19.9588 25.7142 25.7151 19.9578 25.7151 12.857C25.7151 12.0523 25.6412 11.2648 25.4998 10.501C31.4753 11.6076 36.0009 16.8467 36.0009 23.1427C36.0009 30.2435 30.2445 35.9999 23.1437 35.9999C16.8477 35.9999 11.6086 31.4744 10.502 25.4988C11.2657 25.6402 12.0532 25.7142 12.858 25.7142Z" fill="#2E90FA"/>
</g>
</svg>
